<svg id="Layer_1" data-name="Layer 1" xmlns="http://www.w3.org/2000/svg" viewBox="0 0 226.34 89.08"><defs><style>.cls-1{fill:#f4dba4;}.cls-2{fill:#fff;}</style></defs><path class="cls-1" d="M57.19,32.41a26.31,26.31,0,0,1-2.61,12.13,24.62,24.62,0,0,1-6.87,8.39,28.66,28.66,0,0,1-9.64,4.83,39.08,39.08,0,0,1-10.88,1.55H7.25V5.82H26.59A47.87,47.87,0,0,1,37.77,7.14a28.19,28.19,0,0,1,9.82,4.39,22.43,22.43,0,0,1,6.95,8.19A27.58,27.58,0,0,1,57.19,32.41Zm-13.45,0a16.94,16.94,0,0,0-1.47-7.51,12.77,12.77,0,0,0-3.93-4.76,15.74,15.74,0,0,0-5.59-2.53,27.19,27.19,0,0,0-6.46-.76H19.87V48.13H26a28.24,28.24,0,0,0,6.69-.79,15.86,15.86,0,0,0,5.67-2.61,13,13,0,0,0,3.93-4.84A17,17,0,0,0,43.74,32.41Z"/><path class="cls-1" d="M67.38,59.31V5.82h36V16.7H79.85V26.82h22.21V37.17H79.85V48.28h24.86v11Z"/><path class="cls-2" d="M158.61,47.94a19.21,19.21,0,0,1-4.65,6.8,21.36,21.36,0,0,1-7.29,4.42,29.18,29.18,0,0,1-19,0,20.77,20.77,0,0,1-7.18-4.42,19.32,19.32,0,0,1-4.53-6.8,23.45,23.45,0,0,1-1.58-8.8V5.82h12.84V38.08a14.88,14.88,0,0,0,.57,4.16,10.47,10.47,0,0,0,1.73,3.51,8.16,8.16,0,0,0,3.1,2.45,12.31,12.31,0,0,0,9.29,0,8.45,8.45,0,0,0,3.14-2.45,10,10,0,0,0,1.74-3.51,16.07,16.07,0,0,0,.52-4.16V5.82h12.92V39.14A23.06,23.06,0,0,1,158.61,47.94Z"/><path class="cls-2" d="M204.58,59.31,192.87,40.42,181.61,59.31H166.2l18.74-28.26L167.71,5.82h15.56l10,16.62,9.82-16.62h15L201.18,31.05l19.34,28.26Z"/><path class="cls-2" d="M7.93,76.1h2.75a5.8,5.8,0,0,1,1.53.2,3.81,3.81,0,0,1,1.38.65,3.31,3.31,0,0,1,1,1.19A3.94,3.94,0,0,1,15,80a3.68,3.68,0,0,1-.39,1.75,3.56,3.56,0,0,1-1,1.21,4.28,4.28,0,0,1-1.38.7,5.83,5.83,0,0,1-1.53.22H7.93Zm2.53,6.55a5,5,0,0,0,1.08-.12,2.93,2.93,0,0,0,1-.43,2.17,2.17,0,0,0,.7-.82,2.64,2.64,0,0,0,.28-1.3,2.83,2.83,0,0,0-.28-1.36,2.17,2.17,0,0,0-.7-.82,2.71,2.71,0,0,0-1-.41,5.65,5.65,0,0,0-1.08-.11H9.31v5.37Z"/><path class="cls-2" d="M20.4,76.1h1.39v7.76H20.4Z"/><path class="cls-2" d="M31.55,77.72a1.63,1.63,0,0,0-.62-.48,1.91,1.91,0,0,0-.8-.19,2,2,0,0,0-.48.06,1.46,1.46,0,0,0-.44.19,1,1,0,0,0-.33.33.94.94,0,0,0-.12.49.78.78,0,0,0,.11.44.84.84,0,0,0,.3.32,1.8,1.8,0,0,0,.46.23l.61.2.77.27a3.06,3.06,0,0,1,.73.41,1.89,1.89,0,0,1,.55.64,1.83,1.83,0,0,1,.22,1,2.47,2.47,0,0,1-.23,1.09,2.24,2.24,0,0,1-.62.77,2.4,2.4,0,0,1-.9.46,3.49,3.49,0,0,1-1.08.16,4.18,4.18,0,0,1-1.48-.28A2.91,2.91,0,0,1,27,83L28,82a2,2,0,0,0,.76.62,2,2,0,0,0,1.43.17,1.26,1.26,0,0,0,.46-.2,1.15,1.15,0,0,0,.33-.36,1,1,0,0,0,.12-.53.85.85,0,0,0-.14-.51,1.29,1.29,0,0,0-.38-.35,3,3,0,0,0-.57-.26l-.69-.22c-.24-.08-.47-.17-.7-.27a2.47,2.47,0,0,1-.64-.4,2.2,2.2,0,0,1-.45-.62,2.31,2.31,0,0,1,.07-1.94,2.18,2.18,0,0,1,.65-.7,2.72,2.72,0,0,1,.91-.42,4,4,0,0,1,1-.14,3.61,3.61,0,0,1,1.2.21,3,3,0,0,1,1.06.62Z"/><path class="cls-2" d="M38,76.1h5.14v1.2H39.37v2h3.56v1.16H39.37v2.19h4v1.23H38Z"/><path class="cls-2" d="M48.77,76.1H50.6l3.61,5.81h0V76.1h1.38v7.76H53.86l-3.68-6h0v6H48.77Zm1.4-.66a2.91,2.91,0,0,1,.12-.51,1.59,1.59,0,0,1,.23-.45,1,1,0,0,1,.35-.31,1.08,1.08,0,0,1,.52-.12,2.3,2.3,0,0,1,.45,0,2.6,2.6,0,0,1,.42.15l.4.14a1,1,0,0,0,.31.06.42.42,0,0,0,.34-.13,1,1,0,0,0,.17-.33h.72a3,3,0,0,1-.13.52,1.4,1.4,0,0,1-.22.44,1.22,1.22,0,0,1-.36.32,1,1,0,0,1-.52.12,1.9,1.9,0,0,1-.46-.07,3.26,3.26,0,0,1-.44-.15L51.7,75a1.32,1.32,0,0,0-.31,0,.42.42,0,0,0-.33.14,1,1,0,0,0-.17.33Z"/><path class="cls-2" d="M61.05,80a4.39,4.39,0,0,1,.31-1.69A3.68,3.68,0,0,1,62.23,77a3.91,3.91,0,0,1,1.31-.81,5,5,0,0,1,3.34,0,3.9,3.9,0,0,1,1.33.81,3.68,3.68,0,0,1,.87,1.27A4.39,4.39,0,0,1,69.39,80a4.27,4.27,0,0,1-.31,1.66,3.86,3.86,0,0,1-.87,1.29,4.15,4.15,0,0,1-1.33.85,4.8,4.8,0,0,1-3.34,0,4.17,4.17,0,0,1-1.31-.85,3.86,3.86,0,0,1-.87-1.29A4.27,4.27,0,0,1,61.05,80Zm1.5,0a3.45,3.45,0,0,0,.19,1.14,2.7,2.7,0,0,0,.55.91,2.55,2.55,0,0,0,.85.59,2.51,2.51,0,0,0,1.08.22,2.58,2.58,0,0,0,1.08-.22,2.55,2.55,0,0,0,.85-.59,2.7,2.7,0,0,0,.55-.91A3.21,3.21,0,0,0,67.89,80a3.14,3.14,0,0,0-.19-1.12,2.92,2.92,0,0,0-.54-.9,2.43,2.43,0,0,0-.85-.6,2.59,2.59,0,0,0-1.09-.22,2.53,2.53,0,0,0-1.09.22,2.31,2.31,0,0,0-.84.6,2.76,2.76,0,0,0-.55.9A3.37,3.37,0,0,0,62.55,80Z"/><path class="cls-2" d="M81.67,76.1h2.75a5.67,5.67,0,0,1,1.52.2,3.78,3.78,0,0,1,1.39.65,3.42,3.42,0,0,1,1,1.19A3.94,3.94,0,0,1,88.71,80a3.63,3.63,0,0,1-1.38,3,4.23,4.23,0,0,1-1.39.7,5.7,5.7,0,0,1-1.52.22H81.67Zm2.53,6.55a5,5,0,0,0,1.08-.12,3,3,0,0,0,1-.43,2.26,2.26,0,0,0,.7-.82,2.64,2.64,0,0,0,.28-1.3A2.83,2.83,0,0,0,87,78.62a2.26,2.26,0,0,0-.7-.82,2.79,2.79,0,0,0-1-.41,5.65,5.65,0,0,0-1.08-.11H83.05v5.37Z"/><path class="cls-2" d="M94.14,76.1h5.14v1.2H95.52v2h3.57v1.16H95.52v2.19h4v1.23H94.14Z"/><path class="cls-2" d="M111.77,76.1h5.14v1.2h-3.76v2h3.56v1.16h-3.56v2.19h4v1.23h-5.34Z"/><path class="cls-2" d="M124.43,79.72,122,76.1h1.67l1.6,2.65,1.57-2.65h1.59l-2.36,3.65,2.78,4.11h-1.74l-1.9-3-1.82,3h-1.66Z"/><path class="cls-2" d="M133.87,76.1h2.53a5.57,5.57,0,0,1,1.21.12,2.64,2.64,0,0,1,.92.39,1.94,1.94,0,0,1,.59.71,2.28,2.28,0,0,1,.21,1,2.21,2.21,0,0,1-.24,1.08,2,2,0,0,1-.66.71,2.77,2.77,0,0,1-1,.39,5.36,5.36,0,0,1-1.16.12h-1.06v3.21h-1.38Zm2.34,3.39a4.4,4.4,0,0,0,.65,0,1.78,1.78,0,0,0,.55-.18,1,1,0,0,0,.38-.34,1,1,0,0,0,.15-.57.93.93,0,0,0-.53-.89,1.43,1.43,0,0,0-.53-.16,4.21,4.21,0,0,0-.62,0h-1v2.23Z"/><path class="cls-2" d="M144.65,76.1h5.15v1.2H146v2h3.56v1.16H146v2.19h4v1.23h-5.34Z"/><path class="cls-2" d="M155.44,76.1h2.7a5.29,5.29,0,0,1,1.06.11,3,3,0,0,1,.92.38,1.95,1.95,0,0,1,.88,1.73,2,2,0,0,1-.48,1.38,2.47,2.47,0,0,1-1.3.72l2.07,3.44h-1.66l-1.8-3.29h-1v3.29h-1.38ZM158,79.44a3.81,3.81,0,0,0,.59,0,1.65,1.65,0,0,0,.53-.17,1,1,0,0,0,.39-.34,1,1,0,0,0,.16-.58.86.86,0,0,0-.15-.52,1,1,0,0,0-.36-.32,1.47,1.47,0,0,0-.5-.17,4.9,4.9,0,0,0-.54,0h-1.25v2.18Z"/><path class="cls-2" d="M166.44,76.1h1.38v7.76h-1.38Z"/><path class="cls-2" d="M173.63,76.1h5.14v1.2H175v2h3.56v1.16H175v2.19h4v1.23h-5.33Z"/><path class="cls-2" d="M184.41,76.1h1.83l3.61,5.81h0V76.1h1.38v7.76H189.5l-3.68-6h0v6h-1.38Z"/><path class="cls-2" d="M202.66,77.92a1.74,1.74,0,0,0-.8-.61,2.6,2.6,0,0,0-1-.19,2.64,2.64,0,0,0-1.1.22,2.43,2.43,0,0,0-.85.6,2.94,2.94,0,0,0-.55.9,3.37,3.37,0,0,0-.19,1.12,3.32,3.32,0,0,0,.19,1.16,2.52,2.52,0,0,0,.53.9,2.33,2.33,0,0,0,.83.59,2.67,2.67,0,0,0,1.08.21,2.33,2.33,0,0,0,1.11-.25,2.16,2.16,0,0,0,.78-.65l1.11.78a3.7,3.7,0,0,1-1.26,1,4,4,0,0,1-1.75.36,4.55,4.55,0,0,1-1.67-.3,4.06,4.06,0,0,1-1.31-.85,3.67,3.67,0,0,1-.85-1.29,4.27,4.27,0,0,1-.31-1.66,4.39,4.39,0,0,1,.32-1.69A3.73,3.73,0,0,1,197.9,77a4,4,0,0,1,1.33-.81,4.76,4.76,0,0,1,1.67-.29,5.38,5.38,0,0,1,.78.07,3.81,3.81,0,0,1,.77.22,3.68,3.68,0,0,1,.71.37,2.35,2.35,0,0,1,.56.53Z"/><path class="cls-2" d="M208.79,76.1h1.38v7.76h-1.38Z"/><path class="cls-2" d="M218.41,76.1h1.2L223,83.86h-1.58l-.72-1.78h-3.36l-.71,1.78H215Zm1.76,4.8L219,77.74l-1.21,3.16Z"/></svg>