<svg xmlns="http://www.w3.org/2000/svg" viewBox="0 0 299.03 202.34"><defs><style>.cls-1{fill:#fff;}</style></defs><title>email-blanco1</title><g id="Layer_2" data-name="Layer 2"><g id="_" data-name="@"><path class="cls-1" d="M279.67,0H19.36A19.38,19.38,0,0,0,0,19.36V183a19.38,19.38,0,0,0,19.36,19.36H279.67A19.38,19.38,0,0,0,299,183V19.36A19.38,19.38,0,0,0,279.67,0Zm-19,20.12-105.28,79a10.22,10.22,0,0,1-5.81,1.65h0a10,10,0,0,1-5.84-1.67L38.4,20.12ZM32.93,182.21l57.47-71A10.07,10.07,0,0,0,74.75,98.55L20.13,166V31.58l111.46,83.6a31.07,31.07,0,0,0,35.86,0L278.9,31.58V166L224.28,98.56a10.06,10.06,0,1,0-15.65,12.66l57.47,71Z"/></g></g></svg>