<svg xmlns="http://www.w3.org/2000/svg" viewBox="0 0 216.48 216.52"><defs><style>.cls-1{fill:#fff;}</style></defs><title>instagram-blanco1</title><g id="Layer_2" data-name="Layer 2"><g id="_" data-name="@"><path class="cls-1" d="M215.93,63.66c-.51-11.51-2.37-19.42-5-26.27A55.48,55.48,0,0,0,179.22,5.71c-6.9-2.66-14.77-4.53-26.27-5S137.68,0,108.28,0,75.21.13,63.66.63,44.24,3,37.39,5.67a52.86,52.86,0,0,0-19.2,12.52A53.29,53.29,0,0,0,5.71,37.35c-2.66,6.89-4.53,14.76-5,26.27S0,78.89,0,108.28s.13,33.08.63,44.63,2.37,19.41,5,26.26a55.4,55.4,0,0,0,31.68,31.68c6.89,2.67,14.76,4.53,26.27,5s15.22.63,44.62.63,33.08-.12,44.63-.63,19.41-2.37,26.26-5a55.35,55.35,0,0,0,31.68-31.68c2.67-6.89,4.53-14.76,5-26.26s.63-15.23.63-44.63S216.44,75.21,215.93,63.66Zm-19.5,88.4c-.46,10.58-2.24,16.29-3.72,20.09a35.89,35.89,0,0,1-20.56,20.56c-3.8,1.48-9.56,3.26-20.09,3.72-11.42.51-14.84.64-43.73.64s-32.36-.13-43.74-.64C54,196,48.3,194.19,44.5,192.71a33.31,33.31,0,0,1-12.44-8.08A33.8,33.8,0,0,1,24,172.2c-1.48-3.81-3.25-9.56-3.72-20.1-.51-11.42-.63-14.84-.63-43.73s.12-32.36.63-43.74C20.73,54.06,22.5,48.35,24,44.54A33,33,0,0,1,32.11,32.1,33.49,33.49,0,0,1,44.54,24c3.81-1.48,9.56-3.26,20.09-3.73,11.42-.5,14.85-.63,43.74-.63s32.35.13,43.73.63c10.58.47,16.29,2.25,20.1,3.73a33.33,33.33,0,0,1,12.43,8.07,33.63,33.63,0,0,1,8.08,12.44c1.48,3.81,3.26,9.56,3.72,20.09.51,11.42.64,14.85.64,43.74S196.94,140.64,196.43,152.06Z"/><path class="cls-1" d="M108.28,52.66a55.62,55.62,0,1,0,55.62,55.62A55.64,55.64,0,0,0,108.28,52.66Zm0,91.7a36.08,36.08,0,1,1,36.08-36.08A36.08,36.08,0,0,1,108.28,144.36Z"/><path class="cls-1" d="M179.09,50.46a13,13,0,1,1-13-13A13,13,0,0,1,179.09,50.46Z"/></g></g></svg>