<svg id="Layer_1" data-name="Layer 1" xmlns="http://www.w3.org/2000/svg" viewBox="0 0 858 330"><defs><style>.cls-1{fill:#f0dda8;}.cls-2{fill:#fff;}</style></defs><path class="cls-1" d="M197.31,126.79q0,26.56-9.85,45.84a92.41,92.41,0,0,1-26,31.7,108.15,108.15,0,0,1-36.41,18.28,147.34,147.34,0,0,1-41.13,5.86H8.52V26.25H81.63a181,181,0,0,1,42.28,5A106.2,106.2,0,0,1,161,47.81q16.28,11.58,26.27,31T197.31,126.79Zm-50.84,0q0-17.15-5.57-28.42a48,48,0,0,0-14.85-18,59.46,59.46,0,0,0-21.14-9.56A104.07,104.07,0,0,0,80.49,68H56.21V186.2H79.35a105.1,105.1,0,0,0,25.28-3,59.8,59.8,0,0,0,21.42-9.86,48.84,48.84,0,0,0,14.85-18.28Q146.47,143.64,146.47,126.79Z"/><path class="cls-1" d="M235.86,228.47V26.25h136V67.38H283v38.27h84v39.13H283v42h94v41.7Z"/><path class="cls-2" d="M580.75,185.48a72.49,72.49,0,0,1-17.57,25.71,81.14,81.14,0,0,1-27.56,16.71,102.22,102.22,0,0,1-35.85,6q-20,0-36-6a78.21,78.21,0,0,1-27.14-16.71,72.63,72.63,0,0,1-17.14-25.71,89,89,0,0,1-6-33.27v-126h48.55v122a56.73,56.73,0,0,0,2.14,15.71,40.37,40.37,0,0,0,6.57,13.28,30.82,30.82,0,0,0,11.71,9.28q7.29,3.44,17.57,3.43t17.56-3.43a32,32,0,0,0,11.86-9.28,37.15,37.15,0,0,0,6.57-13.28,60.33,60.33,0,0,0,2-15.71v-122h48.84v126A87,87,0,0,1,580.75,185.48Z"/><path class="cls-2" d="M754.54,228.47l-44.27-71.41-42.55,71.41H609.45l70.83-106.82-65.12-95.4H674l37.7,62.84,37.13-62.84h56.84l-64,95.4,73.12,106.82Z"/><path class="cls-2" d="M11.09,291.94h10.4a22.89,22.89,0,0,1,5.76.75,14.77,14.77,0,0,1,5.22,2.46,12.93,12.93,0,0,1,3.78,4.52,15,15,0,0,1,1.45,6.94,14.23,14.23,0,0,1-1.45,6.63,13.64,13.64,0,0,1-3.78,4.56,15.47,15.47,0,0,1-5.22,2.63,20.25,20.25,0,0,1-5.76.85H11.09Zm9.57,24.78a18.07,18.07,0,0,0,4.06-.47,10.58,10.58,0,0,0,3.67-1.62,8.72,8.72,0,0,0,2.68-3.09,10.44,10.44,0,0,0,1-4.93,11.14,11.14,0,0,0-1-5.14,8.53,8.53,0,0,0-2.68-3.11,10.07,10.07,0,0,0-3.67-1.53,19.9,19.9,0,0,0-4.06-.41H16.31v20.3Z"/><path class="cls-2" d="M58.25,291.94h5.22v29.34H58.25Z"/><path class="cls-2" d="M100.4,298.07a6.63,6.63,0,0,0-2.34-1.8,7.06,7.06,0,0,0-3-.72,7.49,7.49,0,0,0-1.82.22,5.74,5.74,0,0,0-1.66.71,3.8,3.8,0,0,0-1.22,1.24,3.42,3.42,0,0,0-.48,1.85,3.3,3.3,0,0,0,.41,1.69,4,4,0,0,0,1.14,1.21,8,8,0,0,0,1.76.87c.69.25,1.46.49,2.28.74s1.92.65,2.93,1a11.67,11.67,0,0,1,2.77,1.53,7.56,7.56,0,0,1,2.07,2.41,7.29,7.29,0,0,1,.81,3.6,9.16,9.16,0,0,1-.87,4.12,8.51,8.51,0,0,1-2.32,2.93,10,10,0,0,1-3.4,1.74,14.51,14.51,0,0,1-4.1.58A15.24,15.24,0,0,1,87.72,321a10.75,10.75,0,0,1-4.48-3.13L87,314.36a7.46,7.46,0,0,0,2.88,2.36,7.77,7.77,0,0,0,5.41.65A5.15,5.15,0,0,0,97,316.6a4.33,4.33,0,0,0,1.24-1.35,3.88,3.88,0,0,0,.48-2,3.3,3.3,0,0,0-.54-1.93A4.76,4.76,0,0,0,96.71,310a10.85,10.85,0,0,0-2.16-1l-2.61-.87a23.75,23.75,0,0,1-2.65-1,9,9,0,0,1-2.38-1.53,7.33,7.33,0,0,1-1.72-2.35,8,8,0,0,1-.67-3.46,7.6,7.6,0,0,1,.94-3.85,8.11,8.11,0,0,1,2.44-2.67,10.94,10.94,0,0,1,3.44-1.58,15.29,15.29,0,0,1,3.92-.52,14.14,14.14,0,0,1,4.54.79,11.25,11.25,0,0,1,4,2.36Z"/><path class="cls-2" d="M124.72,291.94h19.44v4.56H129.94V304h13.47v4.39H129.94v8.29h15v4.64H124.72Z"/><path class="cls-2" d="M165.5,291.94h6.92l13.64,22h.08v-22h5.22v29.34h-6.63L170.8,298.61h-.08v22.67H165.5Zm5.26-2.49a12.79,12.79,0,0,1,.48-1.94,5.77,5.77,0,0,1,.85-1.68,4.15,4.15,0,0,1,1.35-1.18,3.88,3.88,0,0,1,2-.46,6.88,6.88,0,0,1,1.67.21,9.7,9.7,0,0,1,1.6.54c.55.22,1.06.4,1.51.56a3.87,3.87,0,0,0,1.18.22,1.57,1.57,0,0,0,1.27-.51,3.43,3.43,0,0,0,.64-1.23H186a12.6,12.6,0,0,1-.47,1.95,5.77,5.77,0,0,1-.85,1.68,4.27,4.27,0,0,1-1.35,1.18,3.88,3.88,0,0,1-2,.46,6.53,6.53,0,0,1-1.74-.25,16.19,16.19,0,0,1-1.66-.58,13.24,13.24,0,0,0-1.4-.54,4,4,0,0,0-1.16-.21,1.53,1.53,0,0,0-1.27.54,3.57,3.57,0,0,0-.64,1.24Z"/><path class="cls-2" d="M211.92,306.53a16.35,16.35,0,0,1,1.18-6.36,13.68,13.68,0,0,1,3.27-4.83,14.5,14.5,0,0,1,5-3.07,17.77,17.77,0,0,1,6.28-1.08,18,18,0,0,1,6.34,1.08,14.63,14.63,0,0,1,5,3.07,13.72,13.72,0,0,1,3.29,4.83,17.51,17.51,0,0,1,0,12.64A14.54,14.54,0,0,1,239,317.7a15.06,15.06,0,0,1-5,3.19,17.18,17.18,0,0,1-6.34,1.14,16.94,16.94,0,0,1-6.28-1.14,14.94,14.94,0,0,1-5-3.19,14.49,14.49,0,0,1-3.27-4.89A16.19,16.19,0,0,1,211.92,306.53Zm5.67,0a12.3,12.3,0,0,0,.73,4.33,10,10,0,0,0,2.07,3.42,9.65,9.65,0,0,0,3.19,2.26,10,10,0,0,0,4.08.8,10.22,10.22,0,0,0,4.11-.8,9.63,9.63,0,0,0,3.21-2.26,10,10,0,0,0,2.07-3.42,12.53,12.53,0,0,0,.73-4.33,12.12,12.12,0,0,0-.73-4.23,10.34,10.34,0,0,0-2.05-3.4,9.79,9.79,0,0,0-3.19-2.28,10.18,10.18,0,0,0-4.15-.83,10,10,0,0,0-4.12.83,9.7,9.7,0,0,0-3.17,2.28,10.17,10.17,0,0,0-2.05,3.4A11.9,11.9,0,0,0,217.59,306.53Z"/><path class="cls-2" d="M289.87,291.94h10.4a22.89,22.89,0,0,1,5.76.75,14.94,14.94,0,0,1,5.22,2.46,12.8,12.8,0,0,1,3.77,4.52,14.92,14.92,0,0,1,1.45,6.94,14.11,14.11,0,0,1-1.45,6.63,13.49,13.49,0,0,1-3.77,4.56,15.66,15.66,0,0,1-5.22,2.63,20.25,20.25,0,0,1-5.76.85h-10.4Zm9.57,24.78a18.14,18.14,0,0,0,4.06-.47,10.58,10.58,0,0,0,3.67-1.62,8.59,8.59,0,0,0,2.67-3.09,10.44,10.44,0,0,0,1-4.93,11.13,11.13,0,0,0-1-5.14,8.42,8.42,0,0,0-2.67-3.11,10.07,10.07,0,0,0-3.67-1.53,20,20,0,0,0-4.06-.41h-4.35v20.3Z"/><path class="cls-2" d="M337,291.94h19.43v4.56H342.25V304h13.47v4.39H342.25v8.29h15v4.64H337Z"/><path class="cls-2" d="M403.67,291.94H423.1v4.56H408.89V304h13.47v4.39H408.89v8.29h15v4.64H403.67Z"/><path class="cls-2" d="M451.53,305.62l-9.12-13.68h6.3l6.05,10,6-10h6l-8.95,13.8,10.52,15.54h-6.58l-7.17-11.52-6.88,11.52h-6.3Z"/><path class="cls-2" d="M487.21,291.94h9.57a20.45,20.45,0,0,1,4.56.46,9.34,9.34,0,0,1,3.48,1.49,6.85,6.85,0,0,1,2.24,2.65,8.78,8.78,0,0,1,.79,3.9,8.51,8.51,0,0,1-.91,4.1,7.45,7.45,0,0,1-2.47,2.67,10.6,10.6,0,0,1-3.62,1.47,20.13,20.13,0,0,1-4.4.46h-4v12.14h-5.22Zm8.87,12.81a16,16,0,0,0,2.45-.19,6.89,6.89,0,0,0,2.07-.66,3.59,3.59,0,0,0,2-3.46,3.47,3.47,0,0,0-2-3.36,6.34,6.34,0,0,0-2-.6,17.92,17.92,0,0,0-2.34-.15h-3.82v8.42Z"/><path class="cls-2" d="M528,291.94h19.44v4.56H533.21V304h13.47v4.39H533.21v8.29h15v4.64H528Z"/><path class="cls-2" d="M568.77,291.94H579a18.41,18.41,0,0,1,4,.44,10.19,10.19,0,0,1,3.46,1.43,7.43,7.43,0,0,1,2.43,2.61,8,8,0,0,1,.91,3.93,7.49,7.49,0,0,1-1.8,5.2,9.12,9.12,0,0,1-4.91,2.72l7.83,13h-6.3l-6.8-12.43H574v12.43h-5.22Zm9.49,12.64a14.17,14.17,0,0,0,2.24-.17,6.39,6.39,0,0,0,2-.62,4,4,0,0,0,1.47-1.3,3.84,3.84,0,0,0,.58-2.18,3.35,3.35,0,0,0-.54-2,4.12,4.12,0,0,0-1.37-1.22,5.76,5.76,0,0,0-1.89-.62,13.18,13.18,0,0,0-2-.17H574v8.25Z"/><path class="cls-2" d="M610.33,291.94h5.23v29.34h-5.23Z"/><path class="cls-2" d="M637.52,291.94H657v4.56H642.74V304h13.47v4.39H642.74v8.29h15v4.64H637.52Z"/><path class="cls-2" d="M678.3,291.94h6.92l13.63,22h.09v-22h5.22v29.34h-6.63L683.6,298.61h-.08v22.67H678.3Z"/><path class="cls-2" d="M747.3,298.82a6.67,6.67,0,0,0-3-2.3,10.12,10.12,0,0,0-7.79.1,9.81,9.81,0,0,0-5.28,5.68,11.9,11.9,0,0,0-.73,4.23,13.08,13.08,0,0,0,.71,4.39,9.86,9.86,0,0,0,2,3.42,9.11,9.11,0,0,0,3.13,2.22,10.3,10.3,0,0,0,4.1.78,9.06,9.06,0,0,0,4.18-.93,8.2,8.2,0,0,0,2.95-2.46l4.18,2.94a13.5,13.5,0,0,1-4.76,3.79,15.12,15.12,0,0,1-6.59,1.35,17,17,0,0,1-6.32-1.14,14.25,14.25,0,0,1-8.19-8.08,16.56,16.56,0,0,1-1.16-6.28,16,16,0,0,1,1.22-6.36,14.16,14.16,0,0,1,3.36-4.83,14.81,14.81,0,0,1,5-3.07,17.89,17.89,0,0,1,6.3-1.08,17,17,0,0,1,2.94.27,15.24,15.24,0,0,1,2.94.83,14.84,14.84,0,0,1,2.65,1.39,8.56,8.56,0,0,1,2.12,2Z"/><path class="cls-2" d="M770.46,291.94h5.23v29.34h-5.23Z"/><path class="cls-2" d="M806.85,291.94h4.52L824,321.28h-6l-2.74-6.71H802.58l-2.65,6.71h-5.84Zm6.63,18.15L809,298.16l-4.6,11.93Z"/><path class="cls-2" d="M831,16.38h5.5a9.69,9.69,0,0,1,2.17.24,5.53,5.53,0,0,1,1.86.77,4,4,0,0,1,1.31,1.41,4.23,4.23,0,0,1,.49,2.12,4,4,0,0,1-1,2.8,4.84,4.84,0,0,1-2.65,1.47l4.23,7h-3.4l-3.66-6.71h-2.06v6.71H831Zm5.12,6.82a8.21,8.21,0,0,0,1.21-.09,3.59,3.59,0,0,0,1.08-.33,2.18,2.18,0,0,0,.8-.71,2.1,2.1,0,0,0,.31-1.17,1.82,1.82,0,0,0-.29-1.06,2.13,2.13,0,0,0-.74-.66,3,3,0,0,0-1-.34,7.09,7.09,0,0,0-1.1-.09h-2.55V23.2Z"/><path class="cls-2" d="M837,39.27a15,15,0,1,1,15-15A15,15,0,0,1,837,39.27Zm0-28.95a14,14,0,1,0,14,14A14,14,0,0,0,837,10.32Z"/></svg>