<svg xmlns="http://www.w3.org/2000/svg" viewBox="0 0 214.85 216.52"><defs><style>.cls-1{fill:#fff;fill-rule:evenodd;}</style></defs><title>whatsapp-blanco1</title><g id="Layer_2" data-name="Layer 2"><g id="_" data-name="@"><path class="cls-1" d="M158.83,129.44C156.19,128,143.2,121,140.76,120s-4.21-1.5-6.11,1.13-7.29,8.49-8.91,10.22-3.22,1.91-5.87.46-11.21-4.62-21.15-14.17A81.1,81.1,0,0,1,84.45,98.42c-1.48-2.75,0-4.16,1.38-5.45s2.82-3,4.22-4.56A18.72,18.72,0,0,0,92.91,84a5,5,0,0,0,0-4.72c-.63-1.37-5.51-14.83-7.55-20.3S81,54.34,79.42,54.28s-3.36-.35-5.15-.42A9.91,9.91,0,0,0,67,57c-2.58,2.6-9.78,8.85-10.27,22.11s8.67,26.4,10,28.24,17.5,30.57,44.46,42.38,27.11,8.21,32.06,7.94,16.17-5.92,18.65-12.12,2.68-11.59,2.05-12.73-2.4-1.89-5-3.34Zm-49.46,63.84a87.3,87.3,0,0,1-48.3-14.52l-33.74,10.8,11-32.61a87.77,87.77,0,1,1,71.08,36.33ZM109.37,0A105.49,105.49,0,0,0,19,159.94L0,216.52l58.39-18.69A105.48,105.48,0,1,0,109.37,0Z"/></g></g></svg>