<svg xmlns="http://www.w3.org/2000/svg" viewBox="0 0 66.2 80.7"><title>icono_foco1</title><g id="Layer_2" data-name="Layer 2"><g id="Layer_1-2" data-name="Layer 1"><path d="M36.86,63.13a.17.17,0,0,0,0,.07h6.61a.13.13,0,0,1,0-.06Zm-7.8,0H22.88s0,.07,0,.1h6.19S29.07,63.16,29.06,63.13Z"/><path d="M43.74,65.13H22.91a2.76,2.76,0,0,0-.77.11l22.18,0A2.78,2.78,0,0,0,43.74,65.13Z"/><path d="M29.13,65.13h0Z"/><path d="M33.1,0C14.85,0,0,13.32,0,29.7A28.09,28.09,0,0,0,10.3,51.23c.54.46,1.23,1,2,1.57,3.32,2.47,8.28,6.13,8.56,10.77A4.9,4.9,0,0,0,18,68a4.84,4.84,0,0,0,1.66,3.65,2.95,2.95,0,0,0,2,5.13h5.92a4.88,4.88,0,0,0,4.78,3.89h1.94a4.9,4.9,0,0,0,4.79-3.89H45a2.95,2.95,0,0,0,2-5.13A4.84,4.84,0,0,0,48.63,68a4.89,4.89,0,0,0-3.18-4.58C45.9,58,51.35,54.36,54,52.6c.59-.39,1.06-.7,1.38-1A28.46,28.46,0,0,0,66.2,29.7C66.2,13.32,51.35,0,33.1,0Zm1.19,78.7H32.35a2.89,2.89,0,0,1-2.71-1.89H37A2.9,2.9,0,0,1,34.29,78.7ZM45,74.81H21.65a.95.95,0,1,1,0-1.89H45a.95.95,0,0,1,0,1.89ZM46.63,68a2.9,2.9,0,0,1-2.89,2.89H22.91a2.89,2.89,0,0,1-.77-5.68,2.76,2.76,0,0,1,.77-.11H43.74a2.78,2.78,0,0,1,.58.06h0A2.91,2.91,0,0,1,46.63,68ZM34.84,63.12H31.09a10.06,10.06,0,0,0-2.4-4.86c-.18-.23-.34-.43-.46-.6a15.1,15.1,0,0,1-2.31-8.33c0-6.23,3.15-11.3,7-11.3s7,5.07,7,11.3a14.94,14.94,0,0,1-2.43,8.49c-.05.07-.15.17-.26.3A8.92,8.92,0,0,0,34.84,63.12Zm19.3-13a14,14,0,0,1-1.21.84c-2.93,1.92-8.86,5.84-9.46,12.2a.13.13,0,0,0,0,.06H36.85a.17.17,0,0,1,0-.07,7,7,0,0,1,1.94-3.67c.17-.2.31-.35.39-.47A16.75,16.75,0,0,0,42,49.34C42,42,37.93,36,33,36s-9,6-9,13.3a16.86,16.86,0,0,0,2.66,9.46c.14.2.33.44.54.71a8.59,8.59,0,0,1,1.94,3.62s0,.06,0,.09H22.89s0-.07,0-.1c-.52-5.39-5.78-9.3-9.35-11.94-.78-.57-1.44-1.06-1.93-1.48A26.13,26.13,0,0,1,2,29.7C2,14.43,16,2,33.1,2S64.2,14.43,64.2,29.7A26.45,26.45,0,0,1,54.14,50.09Z"/></g></g></svg>