<svg xmlns="http://www.w3.org/2000/svg" viewBox="0 0 99.89 101.79"><title>icono_diseño1</title><g id="Layer_2" data-name="Layer 2"><g id="Layer_1-2" data-name="Layer 1"><path d="M22.49,101.68l.16.11h5.29a1.18,1.18,0,0,0,.19-.11ZM68.62,59.32H65.87l-1.91,2h2.23v.56Z"/><path d="M18.92,85.45a4.9,4.9,0,1,1,4.89-4.9A4.91,4.91,0,0,1,18.92,85.45Zm0-7.79a2.9,2.9,0,1,0,2.89,2.89A2.9,2.9,0,0,0,18.92,77.66Z"/><path d="M91.77,27.82,68.26,5.43a5,5,0,0,0-7.07.17l-17,17.9-2,2.1L35.6,32.47l-1.91,2L11,58.3h2.77L21,50.72l8,7.58h2.9l-9.48-9,14.09-14.8,1.91-2,3.78-4,.7-.74L44.14,29,70.7,54.3l-3.81,4h2.75l22.3-23.41A5,5,0,0,0,91.77,27.82Zm-1.28,5.69L72.08,52.85,44.22,26.32,62.64,7a3,3,0,0,1,4.24-.1L90.39,29.27A3,3,0,0,1,90.49,33.51Z"/><path d="M20.29,99.68l.11.11H34.49v-.11Z"/><path d="M43.12,5V22.73l-2,2.1V5a3,3,0,0,0-3-3H5.65a3,3,0,0,0-3,3V31.7H34.58l-1.91,2h-30V58.12a4.94,4.94,0,0,0-2,2V5a5,5,0,0,1,5-5H38.12A5,5,0,0,1,43.12,5Z"/><path d="M94.89,59.32H68.62l-2.43,2.56V99.79H36.49V61.32H64l1.91-2H5A5,5,0,0,0,.65,61.86,5,5,0,0,0,0,64.32V96.79a5,5,0,0,0,5,5H22.65l-.16-.11h5.64a1.18,1.18,0,0,1-.19.11h67a5,5,0,0,0,5-5V64.32A5,5,0,0,0,94.89,59.32ZM34.49,99.79H5a3,3,0,0,1-3-3V64.32a3,3,0,0,1,.65-1.86A3,3,0,0,1,5,61.32H34.49Zm63.4-3a3,3,0,0,1-3,3H68.19V61.32h26.7a3,3,0,0,1,3,3Z"/></g></g></svg>