<svg xmlns="http://www.w3.org/2000/svg" viewBox="0 0 101.99 95.84"><title>icono_publicidad1</title><g id="Layer_2" data-name="Layer 2"><g id="Layer_1-2" data-name="Layer 1"><path d="M82,50.59,74.37,37.35l3.87-6.71a7.41,7.41,0,0,0-.43-8l-.22-.3a7.37,7.37,0,0,0-6.93-3l-6.17.82L56.29,5.87a2.5,2.5,0,0,0-4.1-.35L49.48,8.8v0a.79.79,0,0,0-.12.15L23.5,40.26,6.72,50.05A14,14,0,0,0,.94,56.76C-.27,59.83-.92,64.65,2.87,70.17a11.38,11.38,0,0,0,7.54,5.09,12.74,12.74,0,0,0,2,.17,17.29,17.29,0,0,0,6.88-1.6l12.12,20.8a2.52,2.52,0,0,0,2.16,1.21,2.57,2.57,0,0,0,1.1-.26l7.57-3.75a2.5,2.5,0,0,0,1.07-3.47L34.54,72.9,39,70.46a2.51,2.51,0,0,0,.88-3.18l-2.29-4.19,0,0,42.69-8.77A2.5,2.5,0,0,0,82,50.59ZM19.24,71.66h0a14.61,14.61,0,0,1-8.48,1.61A9.38,9.38,0,0,1,4.52,69C1.88,65.19,1.3,61.31,2.8,57.5a11.93,11.93,0,0,1,4.94-5.73l16.08-9.38,12,19.39-14,8.39A19.5,19.5,0,0,1,19.24,71.66ZM41.6,89.34a.51.51,0,0,1,0,.39.5.5,0,0,1-.26.3l-7.57,3.76a.52.52,0,0,1-.65-.18l-12-20.67a18.45,18.45,0,0,0,1.8-1.11L29.42,68l2.87,5s0,0,0,0ZM38.07,68.16a.51.51,0,0,1-.12.59l-4.4,2.41-2.32-4.07L36,64.39ZM37.73,61,25.38,41.12,50,11.26,74.18,53.51Zm42.53-9a.49.49,0,0,1-.35.29l-3.67.75L51.4,9.61l2.33-2.82a.54.54,0,0,1,.43-.18.5.5,0,0,1,.39.25l8.87,15.46,7.5-1a5.35,5.35,0,0,1,5,2.17l.22.3a5.38,5.38,0,0,1,.31,5.85l-4.44,7.71,8.18,14.24A.48.48,0,0,1,80.26,52Z"/><path d="M89.89,15.6a1,1,0,0,1-.46-1.89l11.1-5.86a1,1,0,0,1,.93,1.77l-11.1,5.86A1,1,0,0,1,89.89,15.6Z"/><path d="M97.5,31.19a1,1,0,0,1-.24,0l-7.61-1.87a1,1,0,0,1-.73-1.21,1,1,0,0,1,1.21-.73l7.61,1.87a1,1,0,0,1-.24,2Z"/><path d="M78.42,8.86a.85.85,0,0,1-.23,0,1,1,0,0,1-.75-1.2L79.07.77A1,1,0,0,1,81,1.23L79.39,8.09A1,1,0,0,1,78.42,8.86Z"/></g></g></svg>