<svg xmlns="http://www.w3.org/2000/svg" viewBox="0 0 697.7 319.03"><title>icono_doubke_diamonts1</title><g id="Layer_2" data-name="Layer 2"><g id="Layer_1-2" data-name="Layer 1"><path d="M688.48,150.3a9.32,9.32,0,0,0-5.65,1.93L518.66,0l-164,150.69L353,152.26a9.2,9.2,0,0,0-11.25-.08L180.59,0,14.9,152.26a9.22,9.22,0,1,0,0,14.52l164.67,151.3,1,.95,159.57-150.7,1.56-1.47a9.21,9.21,0,0,0,11.27-.09L518.66,319,682.83,166.8a9.22,9.22,0,1,0,5.65-16.5ZM13.79,163.73a6.12,6.12,0,0,1-4.57,2,6.22,6.22,0,0,1,0-12.44,6.23,6.23,0,0,1,6.22,6.22A6.22,6.22,0,0,1,13.79,163.73Zm324.33-3.52c0,.21,0,.41.06.62,0,0,0,.08,0,.11,0,.19.06.39.11.58s.09.39.15.59.08.27.13.41l.15.41c.09.22.18.44.29.66a3.9,3.9,0,0,0,.19.35c0,.11.12.22.18.33s.12.2.19.3l.07.11L180.57,314.93,18,165.5l-1-.93a2.12,2.12,0,0,0,.12-.2,7.26,7.26,0,0,0,.38-.67,1,1,0,0,0,.07-.15,6.21,6.21,0,0,0,.31-.7q.12-.3.21-.6l0-.09a3.74,3.74,0,0,0,.12-.45,3.38,3.38,0,0,0,.08-.34c0-.1,0-.2.05-.3a3.68,3.68,0,0,0,.08-.58.77.77,0,0,0,0-.15,7.5,7.5,0,0,0,0-.82c0-.17,0-.34,0-.5l0-.32a4.6,4.6,0,0,0-.06-.52,5.59,5.59,0,0,0-.11-.59,8.77,8.77,0,0,0-.42-1.41c-.09-.23-.19-.46-.3-.68a1.51,1.51,0,0,0-.11-.22,6,6,0,0,0-.31-.55.41.41,0,0,0-.07-.11l-.09-.15L180.57,4.1l158,149.22,1.1,1a2.12,2.12,0,0,0-.12.2,7.1,7.1,0,0,0-.41.7.35.35,0,0,1-.05.08c-.12.25-.24.5-.34.76a3.62,3.62,0,0,0-.13.35,9.22,9.22,0,0,0-.3,1.06q-.07.31-.12.63a.13.13,0,0,1,0,.06,6.2,6.2,0,0,0-.06.62c0,.23,0,.47,0,.7S338.1,160,338.12,160.21Zm13.76,3.52a6.21,6.21,0,0,1-10.79-4.21,6.15,6.15,0,0,1,1-3.34,6.34,6.34,0,0,1,.72-.92h0a6.11,6.11,0,0,1,4.51-1.95,6.22,6.22,0,0,1,4.58,10.43Zm327.41-3.53a6.2,6.2,0,0,0,.06.62.43.43,0,0,1,0,.05c0,.2.07.4.11.59a8,8,0,0,0,.4,1.35,3.52,3.52,0,0,0,.16.39l.15.33.15.29c.09.18.19.34.29.51a.83.83,0,0,0,.08.12l.09.15L518.66,314.94,356,165.51l-1-.94a.83.83,0,0,0,.07-.13.76.76,0,0,0,.12-.19,5.05,5.05,0,0,0,.28-.51,1.24,1.24,0,0,0,.1-.2c.11-.22.21-.45.3-.68a6.44,6.44,0,0,0,.24-.7,3.59,3.59,0,0,0,.12-.47,1.16,1.16,0,0,0,.07-.31c0-.11.05-.22.07-.33l0-.19c0-.13,0-.26.05-.39s0-.07,0-.11l0-.36c0-.16,0-.32,0-.48s0-.31,0-.47l0-.36a.88.88,0,0,0,0-.16,4.86,4.86,0,0,0-.07-.55c0-.11,0-.22-.07-.33a1.08,1.08,0,0,0-.07-.31,3.59,3.59,0,0,0-.12-.47,5.05,5.05,0,0,0-.18-.55,3.05,3.05,0,0,0-.13-.32c-.07-.18-.14-.35-.22-.51a1.71,1.71,0,0,0-.13-.23,5.45,5.45,0,0,0-.29-.53v0l-.06-.1h0l-.09-.14L518.66,4.09,680.79,154.43l-.06.1-.06.1a5.88,5.88,0,0,0-.35.6l-.14.27-.15.33c-.06.13-.11.26-.16.39a8,8,0,0,0-.4,1.35c0,.2-.08.39-.11.59,0,0,0,0,0,.06,0,.21-.05.41-.06.62s0,.45,0,.68S679.27,160,679.29,160.2Zm9.19,5.54a6.22,6.22,0,1,1,6.22-6.22A6.21,6.21,0,0,1,688.48,165.74Z"/></g></g></svg>