<svg xmlns="http://www.w3.org/2000/svg" viewBox="0 0 81.02 81.16"><title>icono_fechas_prototype1</title><g id="Layer_2" data-name="Layer 2"><g id="Layer_1-2" data-name="Layer 1"><path d="M37.61,75.86l-8,5.3-.88-1.33,5.2-3.45A36.41,36.41,0,0,1,4.12,43.25l2-.15a34.41,34.41,0,0,0,28.4,31.36l-4-5.23,1.27-1Z"/><path d="M81,51.15,79.69,52l-3.47-5.17A36.32,36.32,0,0,1,69.4,62.53c-.68.9-1.41,1.78-2.18,2.62A36.12,36.12,0,0,1,42.86,76.88l-.13-2a34.22,34.22,0,0,0,23-11.09c.72-.79,1.41-1.62,2.06-2.47a34.46,34.46,0,0,0,6.48-15l-5.21,4.08-1-1.26,7.56-5.93Z"/><path d="M76.66,38l-2,.15A34.39,34.39,0,0,0,46.16,6.72l4.07,5.22-1.27,1-5.9-7.58,8-5.34L52,1.34,46.75,4.8A36.38,36.38,0,0,1,76.66,38Z"/><path d="M6.63,34.17l5.28-4,1,1.28L5.18,37.25,0,29.16l1.34-.86,3.37,5.26a36.25,36.25,0,0,1,32-29.14l.21,2A34.25,34.25,0,0,0,6.63,34.17Z"/></g></g></svg>