<svg xmlns="http://www.w3.org/2000/svg" viewBox="0 0 76.83 79.63"><title>icono_decide1</title><g id="Layer_2" data-name="Layer 2"><g id="Layer_1-2" data-name="Layer 1"><path d="M22.39,20.35V79.63H0V11.2H11.24a10.13,10.13,0,0,0,.4,2H2V77.63H20.39V20.35c.33,0,.66,0,1,0S22.06,20.38,22.39,20.35Z"/><path d="M49.61,11.2V79.63H27.21V18.57a9.66,9.66,0,0,0,2-1.83V77.63h18.4V13.2H31.14a9.47,9.47,0,0,0,.41-2Z"/><path d="M76.83,79.63H54.43V11.2h22.4Zm-20.4-2h18.4V13.2H56.43Z"/><path d="M24.34,6.54a1,1,0,0,1,.33,1.34l-1.76,3.05-1.6,2.77a.61.61,0,0,1-1,0l-1.44-2.1-.66-1a1,1,0,0,1,.26-1.4A1,1,0,0,1,19,9.11a1,1,0,0,1,.83.43l.86,1.26.67-1.16,1.59-2.76a1,1,0,0,1,1.4-.34Z"/><path d="M21.39,0a10.22,10.22,0,0,0-10.2,10.2c0,.34,0,.67.05,1a10.19,10.19,0,0,0,9.15,9.15c.33,0,.66,0,1,0s.67,0,1,0a10.14,10.14,0,0,0,4.82-1.78,9.66,9.66,0,0,0,2-1.83,10,10,0,0,0,1.93-3.54,9.47,9.47,0,0,0,.41-2c0-.33.05-.66.05-1A10.22,10.22,0,0,0,21.39,0Zm8.14,11.2a8.22,8.22,0,0,1-7.14,7.14A8.2,8.2,0,1,1,29.6,10.2,6.63,6.63,0,0,1,29.53,11.2Z"/></g></g></svg>