<svg xmlns="http://www.w3.org/2000/svg" viewBox="0 0 121.61 99.65"><title>icono_diseño_interfaces1</title><g id="Layer_2" data-name="Layer 2"><g id="Layer_1-2" data-name="Layer 1"><rect x="11.54" y="5.59" width="2.02" height="2.02"/><rect x="16.37" y="5.59" width="2.02" height="2.02"/><rect x="6.61" y="5.59" width="2.01" height="2.02"/><path d="M93.94,0H5A5,5,0,0,0,0,5V77.4a5,5,0,0,0,5,5H35.15v5.34h-5a5,5,0,0,0-5,5v6.91H73.8V92.74a5,5,0,0,0-5-5H64.36V82.4H79v-2H5a3,3,0,0,1-3-3V71.24H79v-2H2V13.36H96.94V29h2V5A5,5,0,0,0,93.94,0ZM68.8,89.74a3,3,0,0,1,3,3v4.91H27.14V92.74a3,3,0,0,1,3-3ZM37.15,82.4H62.36v5.34H37.15Zm59.79-71H2V5A3,3,0,0,1,5,2H93.94a3,3,0,0,1,3,3Z"/><rect x="59.63" y="38.29" width="15.2" height="2"/><rect x="59.63" y="43.81" width="11.1" height="2"/><path d="M59.63,20.57v14.1h14.1V20.57Zm12.1,12.1H61.63V22.57h10.1Z"/><path d="M78.35,20.57v14.1H79V32.25a3.27,3.27,0,0,1,1.36-2.65v-7h10.1V29h2v-8.4Z"/><path d="M6.51,18.63v35.9H51.94V18.63Zm43.43,33.9H8.51V42l14-12.85a1.44,1.44,0,0,1,1.1-.39,1.49,1.49,0,0,1,1.05.53L35.38,42.05l1.54-1.29-2.64-3.15L42,33.84a1.48,1.48,0,0,1,1.36,0l6.58,3.53Zm0-17.4-5.64-3A3.5,3.5,0,0,0,41.12,32L33,36l-6.74-8a3.49,3.49,0,0,0-5-.33L8.51,39.29V20.63H49.94Z"/><rect x="109.94" y="36.27" width="1.8" height="1.8"/><rect x="106.43" y="36.27" width="1.79" height="1.8"/><path d="M103.64,44.93v12.6h12.6V44.93Zm10.81,10.82h-9v-9h9Z"/><path d="M103.64,60.08v12.6h12.6V60.08Zm10.81,10.81h-9v-9h9Z"/><path d="M89.59,46.26l1.15,1.4h0Z"/><rect x="103.88" y="75.73" width="11.47" height="1.79"/><rect x="103.88" y="81.42" width="8.38" height="1.78"/><rect x="113.59" y="81.42" width="1.8" height="1.79"/><path d="M118.43,31H84.18a3.1,3.1,0,0,0-1.87.61A3.15,3.15,0,0,0,81,34.15V96.47a3.19,3.19,0,0,0,3.19,3.18h34.25a3.18,3.18,0,0,0,3.18-3.18V34.15A3.18,3.18,0,0,0,118.43,31ZM82.78,42.29H98.39v3.78L96.33,45a2,2,0,0,0-.82-.21,1.79,1.79,0,0,0-.85.19l-2.73,1.33-.8-.94-1.5-1.79a1.75,1.75,0,0,0-1.3-.65,1.83,1.83,0,0,0-1.36.46l-4.19,3.85Zm0,7.29,0,0,5.45-4.93,1,1.13.38.46h0l1.16,1.39.33.39h0l1.22,1.46,1.38-1.15-.58-.69,2.38-1.14,2.91,1.56v3H82.78Zm0,3.32H98.39v6.76H82.78Zm0,8.54H98.39v6.77H82.78Zm15.61,10v16.1H83.9l4.27-4.75,1.75-1.94,8-8.88ZM82.78,70H97.29l0,0L95.52,72l-8,8.88-1.74,1.94-3,3.33Zm37.05,26.48a1.4,1.4,0,0,1-1.4,1.4H84.18a1.4,1.4,0,0,1-1.4-1.4V89.31h37.05Zm0-9H100.18V42.29h19.65Zm0-47h-37V34.15a1.4,1.4,0,0,1,1.4-1.4h34.25a1.4,1.4,0,0,1,1.4,1.4Z"/><rect x="90.59" y="36.28" width="11.47" height="1.78"/><polygon points="91.08 48.05 90.74 47.65 89.59 46.26 90.75 47.64 91.08 48.05"/><polygon points="91.08 48.05 90.74 47.65 89.59 46.26 90.75 47.64 91.08 48.05"/></g></g></svg>