<svg xmlns="http://www.w3.org/2000/svg" viewBox="0 0 98.93 99.64"><title>icono_programacion1</title><g id="Layer_2" data-name="Layer 2"><g id="Layer_1-2" data-name="Layer 1"><rect x="11.53" y="5.58" width="2.02" height="2.02"/><rect x="16.36" y="5.58" width="2.02" height="2.02"/><rect x="6.6" y="5.58" width="2.02" height="2.02"/><path d="M93.93,0H5A5,5,0,0,0,0,5V77.39a5,5,0,0,0,5,5H35.14v5.35h-5a5,5,0,0,0-5,5v6.9H73.8v-6.9a5,5,0,0,0-5-5H64.35V82.39H93.93a5,5,0,0,0,5-5V5A5,5,0,0,0,93.93,0ZM68.8,89.74a3,3,0,0,1,3,3v4.9H27.13v-4.9a3,3,0,0,1,3-3Zm-31.66-2V82.39H62.35v5.35ZM96.93,77.39a3,3,0,0,1-3,3H5a3,3,0,0,1-3-3V71.23H96.93Zm0-8.16H2V13.36H96.93Zm0-57.87H2V5A3,3,0,0,1,5,2H93.93a3,3,0,0,1,3,3Z"/><polygon points="9.98 29.35 14.29 33.84 12.84 35.23 7.17 29.3 13.47 23.18 14.87 24.61 9.98 29.35"/><polygon points="29.58 29.3 23.9 35.23 22.46 33.84 26.76 29.35 21.88 24.61 23.27 23.18 29.58 29.3"/><polygon points="20.96 24.98 17.62 35.29 15.72 34.67 19.06 24.36 20.96 24.98"/><rect x="36.79" y="35.11" width="34.83" height="2.28"/><rect x="45.93" y="42.47" width="34.83" height="2.28"/><rect x="10.08" y="47.7" width="34.83" height="2"/><rect x="52.15" y="24.67" width="15.2" height="2"/><rect x="36.93" y="29.89" width="15.2" height="2"/><rect x="60.54" y="29.89" width="15.2" height="2"/><rect x="36.77" y="24.67" width="11.1" height="2"/><rect x="25.47" y="42.61" width="15.19" height="2"/><rect x="10.08" y="42.61" width="11.1" height="2"/><rect x="25.47" y="52.79" width="15.19" height="2"/><rect x="55.75" y="47.83" width="15.2" height="2"/><rect x="10.08" y="52.79" width="11.1" height="2"/><rect x="44.2" y="52.79" width="11.09" height="2"/><rect x="47.7" y="47.83" width="4.09" height="2"/><rect x="57.7" y="52.79" width="4.1" height="2"/><rect x="54.29" y="29.89" width="4.09" height="2"/></g></g></svg>