<svg xmlns="http://www.w3.org/2000/svg" viewBox="0 0 126.47 73.16"><title>icono_mapa1</title><g id="Layer_2" data-name="Layer 2"><g id="Layer_1-2" data-name="Layer 1"><path d="M0,0V73.16H126.47V0ZM124.47,71.16H2V2H124.47Z"/><rect x="58.53" y="13.74" width="10.64" height="2"/><rect x="58.53" y="18.41" width="10.64" height="2"/><rect x="58.53" y="42" width="10.64" height="2"/><rect x="22.84" y="42" width="10.65" height="2"/><path d="M101.21,37.91V30.07l-37-.2V24.51h9.81V9.65H53.65V24.51h8.59v5.34l-35.08-.19v8.25H18V52.76H38.36V37.91h-9.2V31.67l33.08.18v6.06H53.65V52.76h20.4V37.91H64.24v-6l35,.19v5.86H90V52.76h20.39V37.91Zm-64.85,2V50.76H20V39.91Zm35.69,0V50.76H55.65V39.91Zm-16.4-17.4V11.65h16.4V22.51Zm52.76,28.25H92V39.91h16.39Z"/><rect x="94.89" y="46.67" width="10.64" height="2"/><rect x="94.89" y="42" width="10.64" height="2"/><rect x="58.53" y="46.67" width="10.64" height="2"/><rect x="22.84" y="46.67" width="10.65" height="2"/></g></g></svg>