<svg xmlns="http://www.w3.org/2000/svg" viewBox="0 0 100.96 91.27"><title>icono_hosting1</title><g id="Layer_2" data-name="Layer 2"><g id="Layer_1-2" data-name="Layer 1"><path d="M50.22,91.25l-.19,0a.73.73,0,0,1-.25,0Z"/><path d="M96.08,35.6A45.71,45.71,0,0,0,53.24,0h-.15L51.56,0A45.72,45.72,0,0,0,7,35.6H0V59.43H8.07a45.33,45.33,0,0,0,7.21,13.84,3.92,3.92,0,0,0,.25.32h0A45.53,45.53,0,0,0,49.78,91.23l.44,0,1.34,0a45.55,45.55,0,0,0,36.05-17.7l.11-.13.11-.15a45.34,45.34,0,0,0,7.22-13.86H101V35.6ZM94,35.6H82.56a52,52,0,0,0-4-12.58A46.65,46.65,0,0,0,86.81,20,43.15,43.15,0,0,1,94,35.6Zm-13.5,0h-15c-.31-3-.78-6.34-1.5-9.84a91.53,91.53,0,0,0,12.47-2.21A49.71,49.71,0,0,1,80.52,35.6Zm5-17.27a50.5,50.5,0,0,1-8,2.86A43.48,43.48,0,0,0,59.9,2.8,43.62,43.62,0,0,1,85.57,18.33Zm-10,3.38a93.34,93.34,0,0,1-12,2.07C61.93,16.39,59,8.61,54.17,2.45,63.27,5.7,70.79,12.68,75.61,21.71Zm-12,13.89H39.65c.3-2.89.75-6.12,1.44-9.48,2.87.25,6,.4,9.32.4.7,0,1.41,0,2.13,0,3.45-.06,6.63-.25,9.55-.53C62.79,29.38,63.26,32.67,63.56,35.6ZM61.64,24c-2.8.27-5.85.45-9.14.51a105.28,105.28,0,0,1-11-.37C43.31,16.52,46.36,8.5,51.6,2.48,56.81,8.46,59.87,16.43,61.64,24Zm-22.11-.06a86.39,86.39,0,0,1-11.53-2A43.29,43.29,0,0,1,48.43,3.24C43.9,9.3,41.17,16.81,39.53,23.93Zm-.43,2c-.7,3.44-1.16,6.74-1.46,9.68H22.73A47.69,47.69,0,0,1,27,23.74,86,86,0,0,0,39.1,25.92ZM45.42,2.43A45.89,45.89,0,0,0,26,21.37a56.33,56.33,0,0,1-8.46-3.05A43.67,43.67,0,0,1,45.42,2.43ZM16.31,20A52.17,52.17,0,0,0,25,23.21,50.09,50.09,0,0,0,20.68,35.6H9.1A43.15,43.15,0,0,1,16.31,20ZM10.17,59.43H21.4a51.23,51.23,0,0,0,3.31,9,52.66,52.66,0,0,0-8.23,3.07A43,43,0,0,1,10.17,59.43Zm13.31,0H38.25c.32,2,.72,4.12,1.2,6.2a85.69,85.69,0,0,0-12.78,2.3A48.3,48.3,0,0,1,23.48,59.43ZM17.74,73.17a56,56,0,0,1,7.9-2.86A43.27,43.27,0,0,0,43.19,88.46,43.67,43.67,0,0,1,17.74,73.17Zm9.87-3.4A85.36,85.36,0,0,1,39.93,67.6c2,7.74,5.06,15.4,9.62,21.45C40.24,85.93,32.54,78.91,27.61,69.77ZM40.27,59.43H62.94c-.32,2-.73,4.09-1.21,6.15-2.82-.26-5.88-.44-9.19-.5a107.81,107.81,0,0,0-11.09.36C41,63.42,40.59,61.41,40.27,59.43Zm1.66,8a98.55,98.55,0,0,1,10.57-.33c3.14.06,6,.23,8.74.48-2,7.59-5.08,15.07-9.64,20.87C47,82.59,43.9,75.05,41.93,67.41Zm21.3.34a93.85,93.85,0,0,1,11.71,2,43.25,43.25,0,0,1-20.68,18.5C58.46,82.36,61.36,75.09,63.23,67.75Zm.49-2c.5-2.13.91-4.26,1.24-6.35H79.42a46.73,46.73,0,0,1-3.48,8.46A93.54,93.54,0,0,0,63.72,65.78Zm-6,23a45.77,45.77,0,0,0,19.19-18.6,52.7,52.7,0,0,1,8.44,2.94A43.6,43.6,0,0,1,57.75,88.83ZM86.64,71.55a49.61,49.61,0,0,0-8.71-3.15,49.48,49.48,0,0,0,3.57-9H93A43.3,43.3,0,0,1,86.64,71.55ZM99,57.43H2V37.6H99Z"/><path d="M29.93,43.5,32,49.82l2-6.32h2l2,6.32,2-6.32h2l-3,8.37H37L35,46l-2,5.9H30.9l-3.07-8.35Z"/><path d="M45,43.5l2,6.32,2-6.32h2l2,6.32,2-6.32h2.05l-3,8.37H52.06l-2-5.9-2,5.9H46l-3.06-8.35Z"/><path d="M60.11,43.5l2,6.32,2-6.32h2l2,6.32,2-6.32h2l-3,8.37H67.15l-2-5.9-2,5.9H61.08L58,43.52Z"/></g></g></svg>