<svg xmlns="http://www.w3.org/2000/svg" viewBox="0 0 98.94 82.4"><defs><style>.cls-1{fill-rule:evenodd;}</style></defs><title>icono_social_media1</title><g id="Layer_2" data-name="Layer 2"><g id="Layer_1-2" data-name="Layer 1"><rect x="11.54" y="5.59" width="2.02" height="2.02"/><rect x="16.37" y="5.59" width="2.02" height="2.02"/><rect x="6.6" y="5.59" width="2.02" height="2.02"/><path d="M93.94,82.4H5a5,5,0,0,1-5-5V5A5,5,0,0,1,5,0H93.94a5,5,0,0,1,5,5V77.4A5,5,0,0,1,93.94,82.4ZM5,2A3,3,0,0,0,2,5V77.4a3,3,0,0,0,3,3H93.94a3,3,0,0,0,3-3V5a3,3,0,0,0-3-3Z"/><rect x="1" y="69.24" width="96.94" height="2"/><rect x="1" y="11.36" width="96.94" height="2"/><path d="M62.47,30.44H60.76v6.11H58.21V30.44H57V28.28h1.2v-1.4a2.38,2.38,0,0,1,2.57-2.56h1.88v2.09H61.29a.51.51,0,0,0-.53.59v1.27h1.93Z"/><path class="cls-1" d="M44.46,52.59c-.14-.08-.83-.46-1-.51s-.23-.08-.33.06-.39.45-.48.55-.17.1-.31,0A4,4,0,0,1,41.25,52a4.44,4.44,0,0,1-.76-1c-.08-.15,0-.22.07-.29s.15-.16.23-.24a1.2,1.2,0,0,0,.15-.24.27.27,0,0,0,0-.25c0-.07-.29-.79-.4-1.09s-.23-.25-.32-.25l-.27,0a.48.48,0,0,0-.39.16A1.57,1.57,0,0,0,39,49.88a2.82,2.82,0,0,0,.52,1.51,6,6,0,0,0,2.38,2.28c1.44.63,1.45.44,1.71.42a1.43,1.43,0,0,0,1-.64,1.26,1.26,0,0,0,.11-.68c0-.06-.13-.1-.27-.18ZM41.81,56a4.68,4.68,0,0,1-2.58-.79l-1.81.58L38,54.05a4.7,4.7,0,1,1,3.8,2Zm0-10.34A5.64,5.64,0,0,0,37,54.2l-1,3,3.12-1a5.64,5.64,0,1,0,2.75-10.57Z"/><path class="cls-1" d="M85.06,49a1.85,1.85,0,0,0-1.85-1.85H74.55A1.85,1.85,0,0,0,72.7,49v5a1.85,1.85,0,0,0,1.85,1.85h8.66a1.85,1.85,0,0,0,1.85-1.85Zm-7.42,4.57V48.89l3.53,2.32Z"/><path d="M26,25.72H17.58a1,1,0,0,0-1,1.05v8.38a1,1,0,0,0,1,1.05H26A1,1,0,0,0,27,35.15V26.77A1,1,0,0,0,26,25.72Zm-4.19,3.14A2.1,2.1,0,1,1,19.68,31a2.1,2.1,0,0,1,2.09-2.1Zm-3.93,6.29a.25.25,0,0,1-.26-.26V30.43h1.1a1.91,1.91,0,0,0-.05.53,3.15,3.15,0,0,0,6.29,0,1.6,1.6,0,0,0-.06-.53H26v4.46a.25.25,0,0,1-.26.26ZM26,28.08a.25.25,0,0,1-.26.26H24.65a.25.25,0,0,1-.26-.26V27a.25.25,0,0,1,.26-.26H25.7A.24.24,0,0,1,26,27Z"/><path d="M21.77,43.29A12.34,12.34,0,1,1,34.1,31,12.34,12.34,0,0,1,21.77,43.29Zm0-23A10.68,10.68,0,1,0,32.45,31,10.69,10.69,0,0,0,21.77,20.28Z"/><path d="M41.71,63.78A12.33,12.33,0,1,1,54,51.45,12.34,12.34,0,0,1,41.71,63.78Zm0-23A10.68,10.68,0,1,0,52.38,51.45,10.69,10.69,0,0,0,41.71,40.77Z"/><path d="M59.85,43.29A12.34,12.34,0,1,1,72.18,31,12.34,12.34,0,0,1,59.85,43.29Zm0-23A10.68,10.68,0,1,0,70.52,31,10.69,10.69,0,0,0,59.85,20.28Z"/><path d="M78.88,63.78A12.33,12.33,0,1,1,91.21,51.45,12.34,12.34,0,0,1,78.88,63.78Zm0-23A10.68,10.68,0,1,0,89.55,51.45,10.68,10.68,0,0,0,78.88,40.77Z"/></g></g></svg>