<svg xmlns="http://www.w3.org/2000/svg" viewBox="0 0 98.94 98.79"><title>icono_registro_marca1</title><g id="Layer_2" data-name="Layer 2"><g id="Layer_1-2" data-name="Layer 1"><rect x="11.54" y="5.59" width="2.02" height="2.02"/><rect x="16.37" y="5.59" width="2.02" height="2.02"/><rect x="6.6" y="5.59" width="2.02" height="2.02"/><path d="M93.94,0H5A5,5,0,0,0,0,5V77.4a5,5,0,0,0,5,5H38.28v-2H5a3,3,0,0,1-3-3V71.24H30.55a6.41,6.41,0,0,1-2.14-2H2V13.36H96.94V69.24H70.47a6.41,6.41,0,0,1-2.14,2H96.94V77.4a3,3,0,0,1-3,3H60.6v2H93.94a5,5,0,0,0,5-5V5A5,5,0,0,0,93.94,0Zm3,11.36H2V5A3,3,0,0,1,5,2H93.94a3,3,0,0,1,3,3Z"/><path d="M89.4,20.37V40.12H71a6,6,0,0,0-1.49-2H87.4V22.37H9.86V38.12H29.42a6,6,0,0,0-1.49,2H7.86V20.37Z"/><path d="M73.45,49.8l-1-1a4.37,4.37,0,0,1-1.2-3.69l.19-1.36A6.48,6.48,0,0,0,71,40.12a6,6,0,0,0-1.49-2,6.36,6.36,0,0,0-3.22-1.58l-1.35-.24A4.4,4.4,0,0,1,61.75,34l-.64-1.21a6.4,6.4,0,0,0-8.5-2.76l-1.23.6a4.41,4.41,0,0,1-3.88,0l-1.23-.6a6.4,6.4,0,0,0-8.5,2.76L37.13,34A4.4,4.4,0,0,1,34,36.3l-1.35.24a6.36,6.36,0,0,0-3.22,1.58,6,6,0,0,0-1.49,2,6.48,6.48,0,0,0-.54,3.64l.19,1.36a4.37,4.37,0,0,1-1.2,3.69l-.95,1a6.4,6.4,0,0,0,0,8.93l.95,1a4.4,4.4,0,0,1,1.2,3.7l-.19,1.35A6.4,6.4,0,0,0,32.64,72l1.35.23a4.41,4.41,0,0,1,3.14,2.29l.64,1.21a5.55,5.55,0,0,0,.51.81V98.79l11.15-4.25,11.15,4.25V76.53a5.55,5.55,0,0,0,.51-.81l.64-1.21a4.37,4.37,0,0,1,3.14-2.28L66.24,72a6.41,6.41,0,0,0,5.25-7.23l-.19-1.35a4.4,4.4,0,0,1,1.2-3.7l1-1A6.4,6.4,0,0,0,73.45,49.8ZM58.6,82.4V95.89L49.44,92.4l-9.15,3.49V78.31a6.4,6.4,0,0,0,6,.17l1.23-.6a4.34,4.34,0,0,1,3.88,0l1.23.6a6.45,6.45,0,0,0,2.84.66,6.29,6.29,0,0,0,3.15-.84ZM72,57.34l-1,1a6.41,6.41,0,0,0-1.74,5.37L69.51,65a4.41,4.41,0,0,1-3.62,5l-1.34.24A6.41,6.41,0,0,0,60,73.57l-.64,1.21a4.41,4.41,0,0,1-5.85,1.9l-1.23-.6a6.35,6.35,0,0,0-5.64,0l-1.23.6a4.41,4.41,0,0,1-5.85-1.9l-.64-1.21a6.51,6.51,0,0,0-4.57-3.32L33,70a4.51,4.51,0,0,1-1.85-.78A4.43,4.43,0,0,1,29.37,65l.19-1.35a6.38,6.38,0,0,0-1.74-5.37l-.95-1a4.4,4.4,0,0,1,0-6.15l.95-1a6.36,6.36,0,0,0,1.74-5.36l-.19-1.36a4.4,4.4,0,0,1,.91-3.36A4.34,4.34,0,0,1,33,38.51l1.34-.24c.22,0,.44-.09.65-.15A6.33,6.33,0,0,0,38.9,35l.64-1.2a4.41,4.41,0,0,1,5.85-1.91l1.23.6a6.35,6.35,0,0,0,5.64,0l1.23-.6a4.41,4.41,0,0,1,5.85,1.91L60,35a6.33,6.33,0,0,0,3.92,3.17c.21.06.43.11.65.15l1.34.24a4.4,4.4,0,0,1,3.62,5l-.19,1.36a6.39,6.39,0,0,0,1.74,5.36l1,1A4.4,4.4,0,0,1,72,57.34Z"/><path d="M57.28,40.12a16.39,16.39,0,1,0,8.55,14.4A16.34,16.34,0,0,0,57.28,40.12ZM49.44,68.91A14.4,14.4,0,1,1,63.83,54.52,14.41,14.41,0,0,1,49.44,68.91Z"/><rect x="75.31" y="46.13" width="13.1" height="2"/><rect x="75.31" y="63.32" width="13.1" height="2"/><rect x="80.31" y="54.73" width="8.1" height="2"/><rect x="8.86" y="46.13" width="13.1" height="2"/><rect x="8.86" y="63.32" width="13.1" height="2"/><rect x="8.86" y="54.73" width="8.1" height="2"/></g></g></svg>