<svg xmlns="http://www.w3.org/2000/svg" viewBox="0 0 45.46 76.86"><title>icono_prototype1</title><g id="Layer_2" data-name="Layer 2"><g id="Layer_1-2" data-name="Layer 1"><rect x="32.39" y="5.93" width="2.02" height="2.02"/><rect x="28.46" y="5.93" width="2.02" height="2.02"/><path d="M25.34,15.63v14.1h14.1V15.63Zm12.1,12.1H27.34V17.63h10.1Z"/><path d="M25.34,32.58v14.1h14.1V32.58Zm12.1,12.1H27.34V34.58h10.1Z"/><path d="M41.9,0H3.56A3.57,3.57,0,0,0,0,3.56V73.3a3.57,3.57,0,0,0,3.56,3.56H41.9a3.57,3.57,0,0,0,3.56-3.56V3.56A3.57,3.57,0,0,0,41.9,0ZM2,12.67H16.91L2,21.75Zm17.47.78v9.09H4.56ZM2,24.54H19.47V32.1H2ZM2,34.1H19.47v7.57H2Zm0,9.57H18.23L2,61.69Zm17.47,1.6v18H3.25Zm24,28a1.56,1.56,0,0,1-1.56,1.56H3.56A1.56,1.56,0,0,1,2,73.3v-8H43.46Zm0-10h-22V12.67h22Zm0-52.62H2V3.56A1.56,1.56,0,0,1,3.56,2H41.9a1.56,1.56,0,0,1,1.56,1.56Z"/><rect x="25.61" y="49.53" width="12.83" height="2"/><rect x="4.32" y="36.89" width="12.83" height="2"/><rect x="4.32" y="27.32" width="12.83" height="2"/><rect x="10.74" y="5.94" width="12.83" height="2"/><rect x="25.61" y="53.45" width="12.83" height="2"/><rect x="25.61" y="57.58" width="9.37" height="2"/><rect x="36.48" y="57.58" width="2.02" height="2.01"/></g></g></svg>