<svg xmlns="http://www.w3.org/2000/svg" viewBox="0 0 90.92 90.67"><title>icono_sketch1</title><g id="Layer_2" data-name="Layer 2"><g id="Layer_1-2" data-name="Layer 1"><path d="M66.73,37.25V0H0V90.67H66.73V52.86l-2,1.54V88.67H2V2H64.73V38.79Z"/><path d="M7.09,8.65V23.5H58.3V8.65ZM56.3,21.5H9.09V10.65H56.3Z"/><rect x="11.98" y="17.41" width="41.44" height="2"/><rect x="11.98" y="12.74" width="41.44" height="2"/><path d="M12,37.91V55.42h7v-2H14V39.91h13.5v3.74h2V37.91Z"/><path d="M20.53,45v2h2.14V45ZM34.7,45v2h2.14V45ZM20.53,49.16v2h2.14v-2Zm14.17,0v2h2.14v-2Zm-14.17,4.3v2h2.14v-2Zm14.17,0v2h2.14v-2ZM20.53,57.33v2h2.14v-2Zm14.17,0v2h2.14v-2Zm0,3.66v2h2.14V61ZM31.05,45v2h2.14V45Zm-3.61,0v2h2.15V45Zm-3.38,0v2h2.15V45Zm7,16v2h2.14V61Zm-3.61,0v2h2.15V61Zm-6.91,0v2h2.15V61Zm3.53,0v2h2.15V61Z"/><path d="M48.11,66.43A9.88,9.88,0,1,0,58,76.31,9.87,9.87,0,0,0,48.11,66.43Zm0,17.75A7.88,7.88,0,1,1,56,76.31,7.88,7.88,0,0,1,48.11,84.18Z"/><path d="M90.66,32.9l-6-7.85a1.23,1.23,0,0,0-1.73-.22L66.73,37.25l-2,1.54-8.32,6.39a1.23,1.23,0,0,0-.33.39L50.26,56.28a1.25,1.25,0,0,0,.5,1.68,1.23,1.23,0,0,0,.88.12l11.85-2.86A1.3,1.3,0,0,0,64,55l.78-.6,2-1.54L90.44,34.64A1.24,1.24,0,0,0,90.66,32.9Zm-25.93,9,2-1.54,10.81-8.31,1.51,2L66.73,43.49l-2,1.54-4.32,3.32-1.51-2ZM53.77,55l1-1.82,1,1.34Zm4.66-1.12-2.37-3.08,1.29-2.38,3.71,4.83Zm8.3-4.15-2,1.53-1.31,1-1.5-2,2.81-2.16,2-1.54L80.55,36l1.51,2ZM84,36.44,79.5,30.56l3.93-3L88,33.43Z"/></g></g></svg>