<svg id="Layer_1" data-name="Layer 1" xmlns="http://www.w3.org/2000/svg" viewBox="0 0 521.95 239.38"><defs><style>.cls-1{fill:#2b2b2b;}.cls-2{fill:#fff;}</style></defs><title>negativo-</title><path class="cls-1" d="M122.68,98.74q0,16.45-6.11,28.39a57.17,57.17,0,0,1-16.09,19.64,67.18,67.18,0,0,1-22.56,11.32,91.26,91.26,0,0,1-25.47,3.63H5.75V36.48H51a112.15,112.15,0,0,1,26.18,3.09,66,66,0,0,1,23,10.26A52.62,52.62,0,0,1,116.49,69Q122.67,81.06,122.68,98.74Zm-31.49,0q0-10.6-3.45-17.6A29.7,29.7,0,0,0,78.54,70a36.77,36.77,0,0,0-13.09-5.93A64.76,64.76,0,0,0,50.33,62.3h-15v73.24H49.62a65.07,65.07,0,0,0,15.66-1.86,37,37,0,0,0,13.26-6.1,30.32,30.32,0,0,0,9.2-11.32Q91.19,109.18,91.19,98.74Z"/><path class="cls-1" d="M146.55,161.72V36.48h84.2V62h-55v23.7h52v24.24h-52v26h58.2v25.83Z"/><path class="cls-2" d="M360.15,135.09A44.94,44.94,0,0,1,349.27,151a50,50,0,0,1-17.07,10.35,68.37,68.37,0,0,1-44.49,0A48.05,48.05,0,0,1,270.91,151a45,45,0,0,1-10.62-15.92,55.14,55.14,0,0,1-3.71-20.6v-78h30.07V112a34.76,34.76,0,0,0,1.33,9.73A24.7,24.7,0,0,0,292,130a19,19,0,0,0,7.26,5.75,28.83,28.83,0,0,0,21.75,0,19.7,19.7,0,0,0,7.34-5.75,22.64,22.64,0,0,0,4.07-8.22A37.11,37.11,0,0,0,333.7,112V36.48H364v78A54,54,0,0,1,360.15,135.09Z"/><path class="cls-2" d="M467.78,161.72l-27.42-44.23L414,161.72H377.92l43.87-66.16L381.46,36.48H417.9l23.35,38.91,23-38.91h35.2L459.82,95.56l45.28,66.16Z"/><path class="cls-2" d="M7.35,201h6.44a14.22,14.22,0,0,1,3.57.46A9.26,9.26,0,0,1,20.59,203a8,8,0,0,1,2.34,2.79,9.28,9.28,0,0,1,.9,4.3,8.78,8.78,0,0,1-.9,4.11A8.41,8.41,0,0,1,20.59,217a9.65,9.65,0,0,1-3.23,1.63,12.71,12.71,0,0,1-3.57.53H7.35Zm5.93,15.34a10.75,10.75,0,0,0,2.51-.29,6.56,6.56,0,0,0,2.27-1,5.34,5.34,0,0,0,1.66-1.91,6.48,6.48,0,0,0,.64-3.06,6.84,6.84,0,0,0-.64-3.18A5.24,5.24,0,0,0,18.06,205a6.29,6.29,0,0,0-2.27-.95,12.57,12.57,0,0,0-2.51-.25h-2.7v12.57Z"/><path class="cls-2" d="M36.56,201h3.23V219.2H36.56Z"/><path class="cls-2" d="M62.66,204.82a4,4,0,0,0-1.45-1.11,4.36,4.36,0,0,0-1.89-.45,4.86,4.86,0,0,0-1.13.14,3.22,3.22,0,0,0-1,.44,2.24,2.24,0,0,0-.76.77,2.28,2.28,0,0,0,0,2.19,2.27,2.27,0,0,0,.71.74,4.26,4.26,0,0,0,1.09.54c.42.16.89.31,1.41.47s1.18.4,1.81.64a7,7,0,0,1,1.72.95,4.63,4.63,0,0,1,1.28,1.49,4.54,4.54,0,0,1,.5,2.23,5.67,5.67,0,0,1-.54,2.55,5.26,5.26,0,0,1-1.44,1.81,6.06,6.06,0,0,1-2.1,1.08,8.81,8.81,0,0,1-2.54.36A9.5,9.5,0,0,1,54.8,219,6.67,6.67,0,0,1,52,217.07l2.31-2.16a4.62,4.62,0,0,0,1.79,1.46,5,5,0,0,0,2.19.54,4.71,4.71,0,0,0,1.16-.14,3.07,3.07,0,0,0,1.06-.47,2.69,2.69,0,0,0,.77-.84,2.37,2.37,0,0,0,.3-1.24,2.07,2.07,0,0,0-.34-1.2,3,3,0,0,0-.9-.82,6.32,6.32,0,0,0-1.33-.6l-1.62-.54a15.57,15.57,0,0,1-1.64-.61,5.59,5.59,0,0,1-1.48-.95,4.73,4.73,0,0,1-1.06-1.45,4.91,4.91,0,0,1-.41-2.15,4.61,4.61,0,0,1,.58-2.38,5,5,0,0,1,1.51-1.66,6.71,6.71,0,0,1,2.13-1,9.48,9.48,0,0,1,2.43-.32,8.8,8.8,0,0,1,2.81.49,6.89,6.89,0,0,1,2.47,1.46Z"/><path class="cls-2" d="M77.72,201h12v2.82H81v4.62H89.3v2.72H81v5.13h9.26v2.88H77.72Z"/><path class="cls-2" d="M103,201h4.28l8.45,13.6h.05V201H119V219.2h-4.1l-8.63-14h-.05v14H103Zm3.26-1.54a7.91,7.91,0,0,1,.29-1.21,3.77,3.77,0,0,1,.53-1,2.65,2.65,0,0,1,.83-.73,2.45,2.45,0,0,1,1.22-.28,4.17,4.17,0,0,1,1,.13,5.23,5.23,0,0,1,1,.33c.34.14.65.25.94.34a2.21,2.21,0,0,0,.73.15,1,1,0,0,0,.78-.32,2.21,2.21,0,0,0,.4-.76h1.69a8.07,8.07,0,0,1-.29,1.2,3.64,3.64,0,0,1-.53,1,2.53,2.53,0,0,1-.83.73,2.45,2.45,0,0,1-1.22.29,3.67,3.67,0,0,1-1.08-.16,8.33,8.33,0,0,1-1-.36c-.3-.13-.6-.24-.87-.33a2.62,2.62,0,0,0-.72-.13.93.93,0,0,0-.78.34,2.26,2.26,0,0,0-.4.77Z"/><path class="cls-2" d="M131.72,210.06a10.32,10.32,0,0,1,.73-3.94,8.75,8.75,0,0,1,2-3,9.13,9.13,0,0,1,3.08-1.9,11.15,11.15,0,0,1,3.89-.67,11.34,11.34,0,0,1,3.93.67,9.22,9.22,0,0,1,3.1,1.9,8.37,8.37,0,0,1,2,3,10.13,10.13,0,0,1,.73,3.94,10,10,0,0,1-.73,3.89,8.81,8.81,0,0,1-2,3,9.38,9.38,0,0,1-3.1,2,10.69,10.69,0,0,1-3.93.71,10.51,10.51,0,0,1-3.89-.71,8.94,8.94,0,0,1-5.11-5A10.17,10.17,0,0,1,131.72,210.06Zm3.52,0a7.65,7.65,0,0,0,.45,2.68,6.3,6.3,0,0,0,1.28,2.12,6,6,0,0,0,2,1.4,6.28,6.28,0,0,0,2.53.5,6.4,6.4,0,0,0,2.54-.5,6,6,0,0,0,2-1.4,6.3,6.3,0,0,0,1.28-2.12,7.65,7.65,0,0,0,.45-2.68,7.47,7.47,0,0,0-.45-2.62,6.38,6.38,0,0,0-1.27-2.1,5.87,5.87,0,0,0-2-1.41,6.1,6.1,0,0,0-2.56-.52,6,6,0,0,0-2.56.52,5.89,5.89,0,0,0-2,1.41,6.38,6.38,0,0,0-1.27,2.1A7.47,7.47,0,0,0,135.24,210.06Z"/><path class="cls-2" d="M180,201h6.44a14.22,14.22,0,0,1,3.57.46,9.26,9.26,0,0,1,3.23,1.53,8,8,0,0,1,2.34,2.79,9.28,9.28,0,0,1,.9,4.3,8.78,8.78,0,0,1-.9,4.11,8.41,8.41,0,0,1-2.34,2.82,9.65,9.65,0,0,1-3.23,1.63,12.71,12.71,0,0,1-3.57.53H180Zm5.93,15.34a10.69,10.69,0,0,0,2.51-.29,6.56,6.56,0,0,0,2.27-1,5.34,5.34,0,0,0,1.66-1.91,6.48,6.48,0,0,0,.64-3.06,6.84,6.84,0,0,0-.64-3.18,5.24,5.24,0,0,0-1.66-1.93,6.29,6.29,0,0,0-2.27-.95,12.5,12.5,0,0,0-2.51-.25h-2.7v12.57Z"/><path class="cls-2" d="M209.21,201h12v2.82h-8.8v4.62h8.34v2.72h-8.34v5.13h9.27v2.88h-12.5Z"/><path class="cls-2" d="M250.48,201h12v2.82h-8.8v4.62h8.34v2.72h-8.34v5.13H263v2.88h-12.5Z"/><path class="cls-2" d="M280.12,209.5,274.47,201h3.9l3.75,6.21,3.7-6.21h3.72L284,209.57l6.51,9.63h-4.08L282,212.06l-4.26,7.14h-3.9Z"/><path class="cls-2" d="M302.22,201h5.93a12.83,12.83,0,0,1,2.82.28,5.89,5.89,0,0,1,2.16.92,4.38,4.38,0,0,1,1.38,1.64,5.44,5.44,0,0,1,.49,2.42,5.18,5.18,0,0,1-.57,2.54,4.55,4.55,0,0,1-1.52,1.65,6.49,6.49,0,0,1-2.25.91,12.46,12.46,0,0,1-2.72.29h-2.49v7.52h-3.23Zm5.49,7.93a9.15,9.15,0,0,0,1.51-.12,4.24,4.24,0,0,0,1.29-.41,2.51,2.51,0,0,0,.9-.81,2.43,2.43,0,0,0,.33-1.33,2.32,2.32,0,0,0-.33-1.3,2.4,2.4,0,0,0-.89-.78,3.78,3.78,0,0,0-1.26-.37,11.4,11.4,0,0,0-1.45-.09h-2.36V209Z"/><path class="cls-2" d="M327.47,201h12v2.82h-8.8v4.62h8.34v2.72h-8.34v5.13H340v2.88h-12.5Z"/><path class="cls-2" d="M352.73,201H359a11.31,11.31,0,0,1,2.49.27,6.4,6.4,0,0,1,2.14.88,4.49,4.49,0,0,1,1.5,1.62,4.84,4.84,0,0,1,.57,2.44,4.63,4.63,0,0,1-1.12,3.22,5.61,5.61,0,0,1-3,1.68l4.85,8.06h-3.9l-4.21-7.7H356v7.7h-3.23Zm5.87,7.82a9.29,9.29,0,0,0,1.39-.1,4.19,4.19,0,0,0,1.24-.38,2.47,2.47,0,0,0,.92-.81,2.42,2.42,0,0,0,.35-1.35,2.09,2.09,0,0,0-.33-1.22,2.4,2.4,0,0,0-.85-.76,3.77,3.77,0,0,0-1.16-.38,8,8,0,0,0-1.27-.1H356v5.1Z"/><path class="cls-2" d="M378.47,201h3.23V219.2h-3.23Z"/><path class="cls-2" d="M395.31,201h12v2.82h-8.8v4.62h8.34v2.72h-8.34v5.13h9.26v2.88H395.31Z"/><path class="cls-2" d="M420.56,201h4.29l8.44,13.6h0V201h3.24V219.2h-4.11l-8.62-14h-.06v14h-3.23Z"/><path class="cls-2" d="M463.29,205.29a4.15,4.15,0,0,0-1.87-1.43,6.26,6.26,0,0,0-4.83.07,5.87,5.87,0,0,0-2,1.41,6.27,6.27,0,0,0-1.29,2.1,7.47,7.47,0,0,0-.45,2.62,8.12,8.12,0,0,0,.44,2.72,6.12,6.12,0,0,0,1.24,2.12,5.57,5.57,0,0,0,1.94,1.37,6.26,6.26,0,0,0,2.54.49,5.52,5.52,0,0,0,2.59-.58,5,5,0,0,0,1.83-1.53l2.59,1.83a8.29,8.29,0,0,1-3,2.34,9.35,9.35,0,0,1-4.08.84,10.59,10.59,0,0,1-3.92-.71,8.79,8.79,0,0,1-5.07-5,10.17,10.17,0,0,1-.72-3.89,10,10,0,0,1,.76-3.94,8.87,8.87,0,0,1,2.08-3,9.31,9.31,0,0,1,3.12-1.9,11.25,11.25,0,0,1,3.9-.67,10.63,10.63,0,0,1,1.82.17,9.25,9.25,0,0,1,1.82.51,9.56,9.56,0,0,1,1.65.86,5.53,5.53,0,0,1,1.31,1.24Z"/><path class="cls-2" d="M477.64,201h3.23V219.2h-3.23Z"/><path class="cls-2" d="M500.17,201H503l7.83,18.17h-3.7L505.41,215h-7.88l-1.64,4.16h-3.62Zm4.11,11.24-2.8-7.39-2.85,7.39Z"/></svg>