<svg xmlns="http://www.w3.org/2000/svg" viewBox="0 0 127.95 81.86"><title>icono_audiovisual1</title><g id="Layer_2" data-name="Layer 2"><g id="Layer_1-2" data-name="Layer 1"><path d="M127.88,43.32l0-.08a.06.06,0,0,0,0,0,1.2,1.2,0,0,0-.18-.26l-.06,0a1,1,0,0,0-.24-.16l-.09,0a1.17,1.17,0,0,0-.37-.08H83.75l-.28-.34L97,38l.17,0,.24-.08,13-4.13,2.76-.88,4.09-1.29,9.94-3.15a1.06,1.06,0,0,0,.68-1.33h0L125.39,19l0-.05a.94.94,0,0,0-.14-.26l-.06-.08s0,0,0,0a1.18,1.18,0,0,0-.25-.19l-.08,0a.79.79,0,0,0-.26-.08h-.11a.94.94,0,0,0-.37,0l-29.33,9.3L92,28.43l-4.66,1.48L74.08,34.13H70.23a1.05,1.05,0,0,0-1,1.06V78.67a3.17,3.17,0,0,0,3.15,3.19H124.8A3.17,3.17,0,0,0,128,78.67v-35s0,0,0-.05A.8.8,0,0,0,127.88,43.32Zm-3.08,1.41-4.72,6.37h-5.77L119,44.73Zm-8.39,0-4.73,6.37h-5.77l4.72-6.37Zm-8.4,0-4.72,6.37H97.51l4.73-6.37Zm-8.4,0L94.89,51.1H89.12l4.72-6.37Zm-8.39,0L86.49,51.1H86V45.8a1.07,1.07,0,0,0-.23-.67l-.3-.38Zm33.11-22.09,1.26,4.05-3,.95Zm-5.45-.5,3.82-1.21-2.62,7.5-3.49,1.11-2,.63,2.63-7.5Zm-9,2.86,4.83-1.53L112.06,31l-5.5,1.75,2.62-7.5Zm-3.18,1-2.62,7.5-5.51,1.75,2.62-7.5ZM93.16,30.3l5.51-1.75-2.62,7.51L90.54,37.8Zm-2.5.79L88,38.59l-3.39,1.08-2.12.67,2.63-7.5Zm-8,2.54L80.8,38.9l-3-3.74ZM71.28,36.25H76l4.85,6.13,1.55,1.95.73.93.13.16.58.74V51.1H71.28Zm54.57,42.42a1.05,1.05,0,0,1-1,1.06H72.33a1.05,1.05,0,0,1-1-1.06V53.22h54.57Zm0-27.57H122.7l3.15-4.24Z"/><rect x="75.47" y="59.58" width="46.18" height="2.12"/><polygon points="75.47 68.07 75.47 70.19 89.12 70.19 89.12 76.55 91.22 76.55 91.22 70.19 105.91 70.19 105.91 76.55 108.01 76.55 108.01 70.19 121.66 70.19 121.66 68.07 75.47 68.07"/><path d="M70.16,20.22a23.12,23.12,0,0,0-32.91,0,23.69,23.69,0,0,0,0,33.26A23.09,23.09,0,0,0,67.3,55.94V52.49a20.46,20.46,0,0,1-28.16-.92,21,21,0,0,1,0-29.44,20.46,20.46,0,0,1,29.13,0,20.69,20.69,0,0,1,5.37,9.52l2.57-.78A23.47,23.47,0,0,0,70.16,20.22Z"/><path d="M87.73,10.82H78.46a2.4,2.4,0,0,1-1.95-1L71.22,2.45A5.86,5.86,0,0,0,66.46,0h-25a5.86,5.86,0,0,0-4.76,2.45L31.44,9.82a2.4,2.4,0,0,1-2,1H19V8.72a3,3,0,0,0-3-3H6.87a3,3,0,0,0-3,3V11.3l-.13.06-.14.07-.1,0-.19.1s0,0,0,0a5.54,5.54,0,0,0-1,.66c-.15.13-.3.26-.44.4l-.17.19,0,.05c-.06.07-.12.13-.17.2l-.05.06c-.09.12-.19.24-.27.37l-.07.09-.12.2L.84,14s-.06.1-.08.15h0a2,2,0,0,1-.1.21l0,.08-.09.18-.06.16a.94.94,0,0,0-.06.15,1.55,1.55,0,0,0-.08.23.32.32,0,0,0,0,.09,4.35,4.35,0,0,0-.18.71.17.17,0,0,0,0,.07,2.93,2.93,0,0,0,0,.29.28.28,0,0,0,0,.09l0,.28v.09c0,.13,0,.25,0,.37V32.45H0V46.56H0V60.74A6.26,6.26,0,0,0,6.23,67H67.3v-2.7H66.05c.42-.19.84-.4,1.25-.61V60.64l-.09,0h0a26.87,26.87,0,0,1-27,0,1.18,1.18,0,0,1-.19-.11A27.54,27.54,0,0,1,51.42,9.47l.3,0,.4,0,.48,0h2.21l.48,0,.4,0,.29,0A27.34,27.34,0,0,1,80,29.71l2.56-.78a29.7,29.7,0,0,0-2.11-5.58H91.28v2.88L94,25.41v-8.3A6.26,6.26,0,0,0,87.73,10.82ZM6.52,8.72a.34.34,0,0,1,.35-.34h9.07a.34.34,0,0,1,.34.34v2.1H6.52Zm13,51.54a4.07,4.07,0,0,1-1.32,3,3.94,3.94,0,0,1-2.47,1H6.23a3.57,3.57,0,0,1-3.55-3.59V46.56h0V33.14h0v-16c0-.11,0-.22,0-.32s0-.05,0-.07a1.54,1.54,0,0,1,0-.31.13.13,0,0,1,0-.06,2.29,2.29,0,0,1,.07-.28,0,0,0,0,0,0,0c0-.1.07-.21.11-.31s0,0,0,0a4.19,4.19,0,0,1,.32-.59h0l.19-.26h0a3.44,3.44,0,0,1,1.35-1h0l.3-.11h0l.29-.07h.07l.26,0h.08l.34,0h9.28a2.6,2.6,0,0,1,.4,0h0l.37,0h0l.34.09.06,0c.11,0,.22.07.33.12a4.06,4.06,0,0,1,2.47,3.75ZM38.82,63c.83.48,1.67.92,2.54,1.32H20.87a0,0,0,0,1,0,0l0,0c.05-.06.09-.13.14-.2l.06-.08.1-.18.06-.08.1-.19.05-.07c.09-.18.18-.37.26-.56l0-.07a1.8,1.8,0,0,0,.08-.21.32.32,0,0,0,0-.09,1.72,1.72,0,0,0,.07-.21.32.32,0,0,0,0-.09A2.33,2.33,0,0,0,22,62s0,0,0-.05,0-.2.07-.31a.43.43,0,0,0,0-.05c0-.08,0-.17,0-.25s0-.07,0-.1l0-.23a.28.28,0,0,1,0-.09,1.94,1.94,0,0,1,0-.24v-.08c0-.11,0-.22,0-.33V57.6H32A29.94,29.94,0,0,0,38.82,63Zm-15-26.16a30.2,30.2,0,0,0,5.94,18H22.22V23.35H27A30.27,30.27,0,0,0,23.84,36.85Zm67.44-16.2H78.9A30.2,30.2,0,0,0,68.62,10.7a31.46,31.46,0,0,0-4-1.93h0L64,8.52l-.19-.07-.75-.26L62.47,8l-.26-.08-.67-.19-.17-.05q-1.36-.36-2.76-.6h-.06c-.63-.11-1.27-.2-1.91-.26h0c-.3,0-.59-.06-.88-.07l-.22,0c-.23,0-.46,0-.7,0H54.6l-.9,0-.9,0h-.23c-.24,0-.48,0-.71,0l-.21,0c-.3,0-.59,0-.88.07h0c-.65.06-1.28.15-1.91.26H48.8q-1.41.24-2.76.6l-.17.05-.67.19L44.94,8l-.58.19-.76.26-.18.07-.64.25h0a30.81,30.81,0,0,0-4,1.93,30.2,30.2,0,0,0-10.28,10H22.22V17.59c0-.11,0-.21,0-.32v-.08a1.94,1.94,0,0,1,0-.24.34.34,0,0,1,0-.1l0-.23s0-.06,0-.09,0-.17,0-.25,0,0,0-.06,0-.21-.07-.31a.42.42,0,0,1,0-.06c0-.07,0-.15-.07-.23a.29.29,0,0,0,0-.1l-.06-.2,0-.09c0-.08-.05-.14-.07-.21l0-.08a2.39,2.39,0,0,0-.13-.28h0l-.13-.27a.56.56,0,0,1-.05-.08l-.1-.18L21.21,14l-.1-.18-.06-.08-.14-.19,0-.06h8.61a5.12,5.12,0,0,0,4.12-2.11L38.89,4a3.23,3.23,0,0,1,2.6-1.34h25A3.19,3.19,0,0,1,69.05,4l5.3,7.37a5.07,5.07,0,0,0,4.11,2.11h9.27a3.58,3.58,0,0,1,3.55,3.59Z"/></g></g></svg>