<svg xmlns="http://www.w3.org/2000/svg" viewBox="0 0 130.91 37.14"><title>remma_registro1</title><g id="Layer_2" data-name="Layer 2"><g id="Layer_1-2" data-name="Layer 1"><path d="M16.58,22.26c-.9,0-1.4-.56-1.86-1.49L11.8,14.85c-.43-.93-.86-1.52-2-1.55H5.91v6.63H8.7a.34.34,0,0,1,.38.37v1.59a.35.35,0,0,1-.38.37H.86a.35.35,0,0,1-.4-.37V20.3c0-.24.12-.37.4-.37H3.22V2.32H.86C.61,2.32.46,2.2.46,2V.37C.46.12.58,0,.86,0h9.55c4.28,0,7.47,2.29,7.47,6.7a5.73,5.73,0,0,1-4.56,6.07,6.29,6.29,0,0,1,1.46,2.08l2.6,5.08h1.9a.33.33,0,0,1,.37.37v1.59a.35.35,0,0,1-.37.37ZM9.88,11.1c3.2,0,5.27-1.09,5.27-4.31,0-3.41-2.45-4.47-5.27-4.47h-4V11.1Z"/><path d="M26.56,14.94c.16,3.63,2.7,5.36,5.15,5.36a6.23,6.23,0,0,0,4.93-2.38.35.35,0,0,1,.55-.1l.84.84c.22.19.25.37.12.56a7.8,7.8,0,0,1-6.6,3.25c-4.18,0-7.62-2.94-7.62-7.9s3.59-7.78,7.31-7.78c4.44,0,7,2.94,6.91,7.75a.38.38,0,0,1-.43.4Zm9-1.89C35.46,10.54,34,8.83,31.3,8.83a4.53,4.53,0,0,0-4.68,4.22Z"/><path d="M66.86,22.26c-.93,0-1.36-.34-1.36-1.3V12.8C65.5,10.48,64.41,9,62.12,9a4.4,4.4,0,0,0-3.85,2.14,4,4,0,0,1,.19,1.24v7.78H60.2a.33.33,0,0,1,.37.37v1.34a.35.35,0,0,1-.37.37H54.28a.36.36,0,0,1-.41-.37V20.55c0-.25.16-.37.41-.37h1.64V12.8C55.92,10.48,54.8,9,52.51,9a4.39,4.39,0,0,0-4.12,2.67v8.49H49.9a.33.33,0,0,1,.38.37v1.34a.35.35,0,0,1-.38.37H44.11a.36.36,0,0,1-.41-.37V20.55c0-.25.16-.37.41-.37h1.7V9.08h-1.7c-.25,0-.41-.12-.41-.37V7.38c0-.25.16-.37.41-.37h3c.68,0,1,.18,1,.93l-.06,1.55h.09a5.45,5.45,0,0,1,5-2.7,4.79,4.79,0,0,1,4.62,2.57,5.61,5.61,0,0,1,5-2.57c3.35,0,5.24,2.14,5.24,5.39l0,8h1.74a.35.35,0,0,1,.4.37v1.34a.36.36,0,0,1-.4.37Z"/><path d="M98.7,22.26c-.93,0-1.37-.34-1.37-1.3V12.8C97.33,10.48,96.25,9,94,9a4.4,4.4,0,0,0-3.85,2.14,4,4,0,0,1,.19,1.24v7.78H92a.33.33,0,0,1,.38.37v1.34a.35.35,0,0,1-.38.37H86.11a.35.35,0,0,1-.4-.37V20.55c0-.25.15-.37.4-.37h1.65V12.8c0-2.32-1.12-3.78-3.41-3.78a4.4,4.4,0,0,0-4.13,2.67v8.49h1.52a.32.32,0,0,1,.37.37v1.34a.34.34,0,0,1-.37.37h-5.8a.36.36,0,0,1-.4-.37V20.55a.35.35,0,0,1,.4-.37h1.71V9.08H75.94a.35.35,0,0,1-.4-.37V7.38a.35.35,0,0,1,.4-.37h3c.68,0,1,.18,1,.93l-.06,1.55H80a5.45,5.45,0,0,1,5-2.7,4.79,4.79,0,0,1,4.62,2.57,5.6,5.6,0,0,1,5-2.57c3.35,0,5.24,2.14,5.24,5.39l0,8h1.73c.25,0,.41.12.41.37v1.34a.36.36,0,0,1-.41.37Z"/><path d="M119.72,22.26c-.9,0-1.34-.34-1.34-1.3V19.37h-.06a7.08,7.08,0,0,1-6,3.14c-2.89,0-5.09-1.62-5.09-4.31,0-3.54,3.41-4.93,8.31-4.93h2.61V12.9c0-3-1.65-3.88-4-3.88a7.1,7.1,0,0,0-4.69,1.43.38.38,0,0,1-.46-.1l-.87-1.08a.32.32,0,0,1,.06-.5c.16-.18,1.86-2,6-2,4,0,6.51,1.67,6.51,6.2v7.19h1.73a.33.33,0,0,1,.38.37v1.34a.34.34,0,0,1-.38.37Zm-1.61-7.13h-2.45c-3.23,0-5.8.4-5.8,2.73,0,1.39,1.24,2.44,3.19,2.44a6.56,6.56,0,0,0,5.06-2.66Z"/><path d="M129.45,22.47A1.44,1.44,0,0,1,128,21a1.48,1.48,0,0,1,3,0A1.43,1.43,0,0,1,129.45,22.47Z"/><path d="M1.58,37.05H1.21V33.77H0v-.34H2.79v.34H1.58Z"/><path d="M8,37.05H7.64V33.43H8.76a1.45,1.45,0,0,1,.87.24.86.86,0,0,1,.32.73.88.88,0,0,1-.24.63,1,1,0,0,1-.69.3l1,1.72H9.61l-1-1.68H8Zm0-2h.65A1.61,1.61,0,0,0,9.08,35a.69.69,0,0,0,.27-.14.45.45,0,0,0,.15-.19.7.7,0,0,0,.05-.25.6.6,0,0,0-.05-.24A.51.51,0,0,0,9.35,34a.85.85,0,0,0-.27-.13,1.61,1.61,0,0,0-.42,0H8Z"/><path d="M14.9,37.05h-.43L16,33.43h.36L18,37.05h-.42l-.4-.95H15.3Zm.54-1.29H17l-.78-1.9Z"/><path d="M22.7,33.43h1.2a2.3,2.3,0,0,1,.68.11,1.82,1.82,0,0,1,1.06.91,1.8,1.8,0,0,1,.16.79,1.77,1.77,0,0,1-.16.79,1.7,1.7,0,0,1-.45.57,1.92,1.92,0,0,1-.61.34,2.3,2.3,0,0,1-.68.11H22.7Zm.37,3.28h.72a1.92,1.92,0,0,0,.71-.12,1.47,1.47,0,0,0,.51-.34,1.22,1.22,0,0,0,.3-.47,1.51,1.51,0,0,0,0-1.08,1.22,1.22,0,0,0-.3-.47,1.47,1.47,0,0,0-.51-.34,1.92,1.92,0,0,0-.71-.12h-.72Z"/><path d="M31.2,36.71h1.94v.34H30.83V33.43h2.24v.34H31.2V35H33v.34H31.2Z"/><path d="M39.93,36.37l1.22-2.94h.57v3.62h-.37V33.92h0L40,37.05h-.19l-1.31-3.13h0v3.13h-.37V33.43h.56Z"/><path d="M46.93,37.05H46.5l1.57-3.62h.36L50,37.05h-.43l-.4-.95H47.32Zm.53-1.29H49l-.78-1.9Z"/><path d="M55.15,37.05h-.37V33.43H55.9a1.45,1.45,0,0,1,.87.24.86.86,0,0,1,.32.73.88.88,0,0,1-.24.63,1,1,0,0,1-.69.3l1,1.72h-.45l-1-1.68h-.61Zm0-2h.65a1.61,1.61,0,0,0,.42-.05.69.69,0,0,0,.27-.14.45.45,0,0,0,.15-.19.7.7,0,0,0,0-.25.6.6,0,0,0,0-.24.51.51,0,0,0-.15-.21.85.85,0,0,0-.27-.13,1.61,1.61,0,0,0-.42,0h-.65Z"/><path d="M62.47,35h.05l1.7-1.57h.53l-1.83,1.64,1.93,2h-.54l-1.78-1.87h-.06v1.87H62.1V33.43h.37Z"/><path d="M75.32,33.43H76.4a2,2,0,0,1,.43,0,1.16,1.16,0,0,1,.38.15,1,1,0,0,1,.26.28.94.94,0,0,1,.09.43.8.8,0,0,1-.16.51.78.78,0,0,1-.48.28h0a.85.85,0,0,1,.6.27.89.89,0,0,1,.22.64,1,1,0,0,1,0,.25.86.86,0,0,1-.18.34,1.29,1.29,0,0,1-.4.29,1.69,1.69,0,0,1-.7.12h-1.1ZM75.69,35h.74a1.09,1.09,0,0,0,.26,0,.66.66,0,0,0,.24-.11.63.63,0,0,0,.17-.19.67.67,0,0,0,.06-.3.53.53,0,0,0,0-.16A.53.53,0,0,0,77,34a.62.62,0,0,0-.23-.18,1,1,0,0,0-.42-.07h-.7Zm0,1.69h.7a1.53,1.53,0,0,0,.38,0,1.34,1.34,0,0,0,.3-.12.7.7,0,0,0,.2-.22.56.56,0,0,0,.07-.3.6.6,0,0,0-.23-.53,1.05,1.05,0,0,0-.67-.18h-.75Z"/><path d="M86.35,35.24a1.9,1.9,0,0,1-.53,1.36,1.91,1.91,0,0,1-.6.4,2.08,2.08,0,0,1-1.5,0,1.91,1.91,0,0,1-.6-.4,1.73,1.73,0,0,1-.39-.6,2,2,0,0,1,0-1.52,1.73,1.73,0,0,1,.39-.6,1.91,1.91,0,0,1,.6-.4,2.08,2.08,0,0,1,1.5,0,1.91,1.91,0,0,1,.6.4,1.9,1.9,0,0,1,.53,1.36Zm-.39,0a1.63,1.63,0,0,0-.11-.59,1.32,1.32,0,0,0-.29-.5,1.24,1.24,0,0,0-.47-.34,1.54,1.54,0,0,0-1.24,0,1.24,1.24,0,0,0-.47.34,1.48,1.48,0,0,0-.3.5,1.87,1.87,0,0,0-.1.59,2,2,0,0,0,.1.6,1.54,1.54,0,0,0,.3.49,1.38,1.38,0,0,0,.47.35,1.66,1.66,0,0,0,1.24,0,1.38,1.38,0,0,0,.47-.35,1.36,1.36,0,0,0,.29-.49A1.73,1.73,0,0,0,86,35.24Z"/><path d="M94,35.7a2.06,2.06,0,0,1,0,.48,1.22,1.22,0,0,1-.2.47,1.09,1.09,0,0,1-.41.35A1.63,1.63,0,0,1,92,37a1.18,1.18,0,0,1-.41-.35,1.63,1.63,0,0,1-.2-.47,2.8,2.8,0,0,1-.05-.48V33.43h.37v2.23a1.55,1.55,0,0,0,0,.45,1.11,1.11,0,0,0,.13.31.73.73,0,0,0,.19.2,1.13,1.13,0,0,0,.21.12l.2,0h.34l.2,0a1.13,1.13,0,0,0,.21-.12.73.73,0,0,0,.19-.2,1.11,1.11,0,0,0,.14-.31,2,2,0,0,0,0-.45V33.43H94Z"/><path d="M100.33,37.05H100V33.77H98.76v-.34h2.78v.34h-1.21Z"/><path d="M106.77,37.05h-.37V33.43h.37Z"/><path d="M115.69,37.05h-2.07a2,2,0,0,1-.73-.14,1.88,1.88,0,0,1-.58-.38,1.93,1.93,0,0,1-.38-.59,2.05,2.05,0,0,1,0-1.49,1.93,1.93,0,0,1,.38-.59,1.88,1.88,0,0,1,.58-.38,2,2,0,0,1,.73-.14,1.89,1.89,0,0,1,.72.14,1.67,1.67,0,0,1,.58.38,2,2,0,0,1,.39.59,2,2,0,0,1,.13.74,1.88,1.88,0,0,1-.2.89,1.42,1.42,0,0,1-.64.62h1.09Zm-3.5-1.86a1.57,1.57,0,0,0,.1.58,1.44,1.44,0,0,0,.28.48,1.41,1.41,0,0,0,.45.34,1.43,1.43,0,0,0,.6.12,1.46,1.46,0,0,0,.6-.12,1.67,1.67,0,0,0,.45-.34,1.64,1.64,0,0,0,.28-.48,1.7,1.7,0,0,0,0-1.15,1.64,1.64,0,0,0-.28-.48,1.67,1.67,0,0,0-.45-.34,1.46,1.46,0,0,0-.6-.12,1.43,1.43,0,0,0-.6.12,1.41,1.41,0,0,0-.45.34,1.44,1.44,0,0,0-.28.48A1.56,1.56,0,0,0,112.19,35.19Z"/><path d="M123.17,35.7a2.8,2.8,0,0,1,0,.48,1.39,1.39,0,0,1-.2.47,1.18,1.18,0,0,1-.41.35,1.4,1.4,0,0,1-.66.14,1.48,1.48,0,0,1-.67-.14,1.14,1.14,0,0,1-.4-.35,1.39,1.39,0,0,1-.2-.47,2.06,2.06,0,0,1,0-.48V33.43h.36v2.23a2,2,0,0,0,0,.45,1.11,1.11,0,0,0,.14.31.73.73,0,0,0,.19.2,1.13,1.13,0,0,0,.21.12l.2,0H122l.21,0a1.13,1.13,0,0,0,.21-.12.73.73,0,0,0,.19-.2,1.11,1.11,0,0,0,.13-.31,1.55,1.55,0,0,0,0-.45V33.43h.37Z"/><path d="M128.75,36.71h1.94v.34h-2.31V33.43h2.24v.34h-1.87V35h1.75v.34h-1.75Z"/></g></g></svg>